%TF.GenerationSoftware,KiCad,Pcbnew,9.0.0*%
%TF.CreationDate,2025-06-28T10:43:13-07:00*%
%TF.ProjectId,STM 32 devboard,53544d20-3332-4206-9465-76626f617264,rev?*%
%TF.SameCoordinates,Original*%
%TF.FileFunction,Paste,Top*%
%TF.FilePolarity,Positive*%
%FSLAX46Y46*%
G04 Gerber Fmt 4.6, Leading zero omitted, Abs format (unit mm)*
G04 Created by KiCad (PCBNEW 9.0.0) date 2025-06-28 10:43:13*
%MOMM*%
%LPD*%
G01*
G04 APERTURE LIST*
G04 Aperture macros list*
%AMRoundRect*
0 Rectangle with rounded corners*
0 $1 Rounding radius*
0 $2 $3 $4 $5 $6 $7 $8 $9 X,Y pos of 4 corners*
0 Add a 4 corners polygon primitive as box body*
4,1,4,$2,$3,$4,$5,$6,$7,$8,$9,$2,$3,0*
0 Add four circle primitives for the rounded corners*
1,1,$1+$1,$2,$3*
1,1,$1+$1,$4,$5*
1,1,$1+$1,$6,$7*
1,1,$1+$1,$8,$9*
0 Add four rect primitives between the rounded corners*
20,1,$1+$1,$2,$3,$4,$5,0*
20,1,$1+$1,$4,$5,$6,$7,0*
20,1,$1+$1,$6,$7,$8,$9,0*
20,1,$1+$1,$8,$9,$2,$3,0*%
G04 Aperture macros list end*
%ADD10RoundRect,0.140000X0.140000X0.170000X-0.140000X0.170000X-0.140000X-0.170000X0.140000X-0.170000X0*%
%ADD11RoundRect,0.375000X0.375000X-0.625000X0.375000X0.625000X-0.375000X0.625000X-0.375000X-0.625000X0*%
%ADD12RoundRect,0.500000X1.400000X-0.500000X1.400000X0.500000X-1.400000X0.500000X-1.400000X-0.500000X0*%
%ADD13R,1.400000X1.200000*%
%ADD14RoundRect,0.120000X0.630000X0.280000X-0.630000X0.280000X-0.630000X-0.280000X0.630000X-0.280000X0*%
%ADD15RoundRect,0.135000X0.135000X0.185000X-0.135000X0.185000X-0.135000X-0.185000X0.135000X-0.185000X0*%
%ADD16RoundRect,0.135000X0.185000X-0.135000X0.185000X0.135000X-0.185000X0.135000X-0.185000X-0.135000X0*%
%ADD17RoundRect,0.135000X-0.135000X-0.185000X0.135000X-0.185000X0.135000X0.185000X-0.135000X0.185000X0*%
%ADD18R,0.400000X1.350000*%
%ADD19R,1.500000X1.900000*%
%ADD20RoundRect,0.079500X-0.100500X0.079500X-0.100500X-0.079500X0.100500X-0.079500X0.100500X0.079500X0*%
%ADD21RoundRect,0.243750X0.456250X-0.243750X0.456250X0.243750X-0.456250X0.243750X-0.456250X-0.243750X0*%
%ADD22RoundRect,0.140000X0.170000X-0.140000X0.170000X0.140000X-0.170000X0.140000X-0.170000X-0.140000X0*%
%ADD23RoundRect,0.140000X0.219203X0.021213X0.021213X0.219203X-0.219203X-0.021213X-0.021213X-0.219203X0*%
%ADD24RoundRect,0.140000X-0.140000X-0.170000X0.140000X-0.170000X0.140000X0.170000X-0.140000X0.170000X0*%
%ADD25RoundRect,0.225000X0.225000X0.250000X-0.225000X0.250000X-0.225000X-0.250000X0.225000X-0.250000X0*%
%ADD26RoundRect,0.250000X-0.475000X0.250000X-0.475000X-0.250000X0.475000X-0.250000X0.475000X0.250000X0*%
%ADD27RoundRect,0.140000X-0.170000X0.140000X-0.170000X-0.140000X0.170000X-0.140000X0.170000X0.140000X0*%
%ADD28RoundRect,0.250000X0.475000X-0.250000X0.475000X0.250000X-0.475000X0.250000X-0.475000X-0.250000X0*%
%ADD29RoundRect,0.075000X-0.665000X0.075000X-0.665000X-0.075000X0.665000X-0.075000X0.665000X0.075000X0*%
%ADD30RoundRect,0.075000X-0.075000X0.665000X-0.075000X-0.665000X0.075000X-0.665000X0.075000X0.665000X0*%
G04 APERTURE END LIST*
D10*
%TO.C,C10*%
X24070000Y-38500000D03*
X25030000Y-38500000D03*
%TD*%
%TO.C,C11*%
X18616893Y-26944440D03*
X19576893Y-26944440D03*
%TD*%
%TO.C,C12*%
X17874142Y-25905871D03*
X18834142Y-25905871D03*
%TD*%
D11*
%TO.C,U1*%
X13700000Y-55150000D03*
X18300000Y-55150000D03*
D12*
X16000000Y-48850000D03*
D11*
X16000000Y-55150000D03*
%TD*%
D13*
%TO.C,Y1*%
X21550000Y-23456912D03*
X23750000Y-25156912D03*
X23750000Y-23456912D03*
X21550000Y-25156912D03*
%TD*%
D14*
%TO.C,SW1*%
X26000000Y-51500000D03*
X26000000Y-49500000D03*
%TD*%
D15*
%TO.C,R3*%
X24410000Y-49800000D03*
X23390000Y-49800000D03*
%TD*%
D16*
%TO.C,R2*%
X27900000Y-46260000D03*
X27900000Y-45240000D03*
%TD*%
D17*
%TO.C,R1*%
X13786317Y-59852750D03*
X14806317Y-59852750D03*
%TD*%
D18*
%TO.C,J3*%
X23300000Y-57837500D03*
X20700000Y-57837500D03*
X21350000Y-57837500D03*
X22000000Y-57837500D03*
X22650000Y-57837500D03*
D19*
X21000000Y-60537500D03*
X23000000Y-60537500D03*
%TD*%
D20*
%TO.C,FB1*%
X18312516Y-27877880D03*
X18312516Y-28567880D03*
%TD*%
D21*
%TO.C,D1*%
X16600000Y-59437500D03*
X16600000Y-57562500D03*
%TD*%
D22*
%TO.C,C13*%
X17500000Y-27826912D03*
X17500000Y-28786912D03*
%TD*%
D23*
%TO.C,C9*%
X17135936Y-36990191D03*
X16457114Y-36311369D03*
%TD*%
D24*
%TO.C,C8*%
X26745811Y-28420361D03*
X25785811Y-28420361D03*
%TD*%
D10*
%TO.C,C7*%
X20520000Y-26556912D03*
X21480000Y-26556912D03*
%TD*%
%TO.C,C6*%
X23759597Y-27033813D03*
X24719597Y-27033813D03*
%TD*%
D25*
%TO.C,C5*%
X25675000Y-39762471D03*
X24125000Y-39762471D03*
%TD*%
D26*
%TO.C,C4*%
X20600000Y-50950000D03*
X20600000Y-49050000D03*
%TD*%
D22*
%TO.C,C3*%
X19750000Y-24026912D03*
X19750000Y-24986912D03*
%TD*%
D27*
%TO.C,C2*%
X25550000Y-24836912D03*
X25550000Y-23876912D03*
%TD*%
D28*
%TO.C,C1*%
X20608899Y-53121859D03*
X20608899Y-55021859D03*
%TD*%
D29*
%TO.C,U2*%
X26160000Y-30556912D03*
D30*
X21250000Y-28646912D03*
D29*
X26160000Y-30056912D03*
X26160000Y-31056912D03*
X26160000Y-31556912D03*
X26160000Y-32056912D03*
X26160000Y-32556912D03*
X26160000Y-33056912D03*
X26160000Y-33556912D03*
X26160000Y-34056912D03*
X26160000Y-34556912D03*
X26160000Y-35056912D03*
X26160000Y-35556912D03*
D30*
X24750000Y-36966912D03*
X24250000Y-36966912D03*
X23750000Y-36966912D03*
X23250000Y-36966912D03*
X22750000Y-36966912D03*
X22250000Y-36966912D03*
X21750000Y-36966912D03*
X21250000Y-36966912D03*
X20750000Y-36966912D03*
X20250000Y-36966912D03*
X19750000Y-36966912D03*
X19250000Y-36966912D03*
D29*
X17840000Y-35556912D03*
X17840000Y-35056912D03*
X17840000Y-34556912D03*
X17840000Y-34056912D03*
X17840000Y-33556912D03*
X17840000Y-33056912D03*
X17840000Y-32556912D03*
X17840000Y-32056912D03*
X17840000Y-31556912D03*
X17840000Y-31056912D03*
X17840000Y-30556912D03*
X17840000Y-30056912D03*
D30*
X19250000Y-28646912D03*
X19750000Y-28646912D03*
X20250000Y-28646912D03*
X20750000Y-28646912D03*
X21750000Y-28646912D03*
X22250000Y-28646912D03*
X22750000Y-28646912D03*
X23250000Y-28646912D03*
X23750000Y-28646912D03*
X24250000Y-28646912D03*
X24750000Y-28646912D03*
%TD*%
M02*
