%TF.GenerationSoftware,KiCad,Pcbnew,9.0.0*%
%TF.CreationDate,2025-06-28T10:43:13-07:00*%
%TF.ProjectId,STM 32 devboard,53544d20-3332-4206-9465-76626f617264,rev?*%
%TF.SameCoordinates,Original*%
%TF.FileFunction,Legend,Top*%
%TF.FilePolarity,Positive*%
%FSLAX46Y46*%
G04 Gerber Fmt 4.6, Leading zero omitted, Abs format (unit mm)*
G04 Created by KiCad (PCBNEW 9.0.0) date 2025-06-28 10:43:13*
%MOMM*%
%LPD*%
G01*
G04 APERTURE LIST*
%ADD10C,0.150000*%
%ADD11C,0.100000*%
%ADD12C,0.120000*%
%ADD13C,0.200000*%
G04 APERTURE END LIST*
D10*
X21639827Y-38943208D02*
X21592208Y-38990828D01*
X21592208Y-38990828D02*
X21449351Y-39038447D01*
X21449351Y-39038447D02*
X21354113Y-39038447D01*
X21354113Y-39038447D02*
X21211256Y-38990828D01*
X21211256Y-38990828D02*
X21116018Y-38895589D01*
X21116018Y-38895589D02*
X21068399Y-38800351D01*
X21068399Y-38800351D02*
X21020780Y-38609875D01*
X21020780Y-38609875D02*
X21020780Y-38467018D01*
X21020780Y-38467018D02*
X21068399Y-38276542D01*
X21068399Y-38276542D02*
X21116018Y-38181304D01*
X21116018Y-38181304D02*
X21211256Y-38086066D01*
X21211256Y-38086066D02*
X21354113Y-38038447D01*
X21354113Y-38038447D02*
X21449351Y-38038447D01*
X21449351Y-38038447D02*
X21592208Y-38086066D01*
X21592208Y-38086066D02*
X21639827Y-38133685D01*
X22592208Y-39038447D02*
X22020780Y-39038447D01*
X22306494Y-39038447D02*
X22306494Y-38038447D01*
X22306494Y-38038447D02*
X22211256Y-38181304D01*
X22211256Y-38181304D02*
X22116018Y-38276542D01*
X22116018Y-38276542D02*
X22020780Y-38324161D01*
X23211256Y-38038447D02*
X23306494Y-38038447D01*
X23306494Y-38038447D02*
X23401732Y-38086066D01*
X23401732Y-38086066D02*
X23449351Y-38133685D01*
X23449351Y-38133685D02*
X23496970Y-38228923D01*
X23496970Y-38228923D02*
X23544589Y-38419399D01*
X23544589Y-38419399D02*
X23544589Y-38657494D01*
X23544589Y-38657494D02*
X23496970Y-38847970D01*
X23496970Y-38847970D02*
X23449351Y-38943208D01*
X23449351Y-38943208D02*
X23401732Y-38990828D01*
X23401732Y-38990828D02*
X23306494Y-39038447D01*
X23306494Y-39038447D02*
X23211256Y-39038447D01*
X23211256Y-39038447D02*
X23116018Y-38990828D01*
X23116018Y-38990828D02*
X23068399Y-38943208D01*
X23068399Y-38943208D02*
X23020780Y-38847970D01*
X23020780Y-38847970D02*
X22973161Y-38657494D01*
X22973161Y-38657494D02*
X22973161Y-38419399D01*
X22973161Y-38419399D02*
X23020780Y-38228923D01*
X23020780Y-38228923D02*
X23068399Y-38133685D01*
X23068399Y-38133685D02*
X23116018Y-38086066D01*
X23116018Y-38086066D02*
X23211256Y-38038447D01*
X18157142Y-27059580D02*
X18109523Y-27107200D01*
X18109523Y-27107200D02*
X17966666Y-27154819D01*
X17966666Y-27154819D02*
X17871428Y-27154819D01*
X17871428Y-27154819D02*
X17728571Y-27107200D01*
X17728571Y-27107200D02*
X17633333Y-27011961D01*
X17633333Y-27011961D02*
X17585714Y-26916723D01*
X17585714Y-26916723D02*
X17538095Y-26726247D01*
X17538095Y-26726247D02*
X17538095Y-26583390D01*
X17538095Y-26583390D02*
X17585714Y-26392914D01*
X17585714Y-26392914D02*
X17633333Y-26297676D01*
X17633333Y-26297676D02*
X17728571Y-26202438D01*
X17728571Y-26202438D02*
X17871428Y-26154819D01*
X17871428Y-26154819D02*
X17966666Y-26154819D01*
X17966666Y-26154819D02*
X18109523Y-26202438D01*
X18109523Y-26202438D02*
X18157142Y-26250057D01*
X19109523Y-27154819D02*
X18538095Y-27154819D01*
X18823809Y-27154819D02*
X18823809Y-26154819D01*
X18823809Y-26154819D02*
X18728571Y-26297676D01*
X18728571Y-26297676D02*
X18633333Y-26392914D01*
X18633333Y-26392914D02*
X18538095Y-26440533D01*
X20061904Y-27154819D02*
X19490476Y-27154819D01*
X19776190Y-27154819D02*
X19776190Y-26154819D01*
X19776190Y-26154819D02*
X19680952Y-26297676D01*
X19680952Y-26297676D02*
X19585714Y-26392914D01*
X19585714Y-26392914D02*
X19490476Y-26440533D01*
X16229281Y-26696047D02*
X16181662Y-26743667D01*
X16181662Y-26743667D02*
X16038805Y-26791286D01*
X16038805Y-26791286D02*
X15943567Y-26791286D01*
X15943567Y-26791286D02*
X15800710Y-26743667D01*
X15800710Y-26743667D02*
X15705472Y-26648428D01*
X15705472Y-26648428D02*
X15657853Y-26553190D01*
X15657853Y-26553190D02*
X15610234Y-26362714D01*
X15610234Y-26362714D02*
X15610234Y-26219857D01*
X15610234Y-26219857D02*
X15657853Y-26029381D01*
X15657853Y-26029381D02*
X15705472Y-25934143D01*
X15705472Y-25934143D02*
X15800710Y-25838905D01*
X15800710Y-25838905D02*
X15943567Y-25791286D01*
X15943567Y-25791286D02*
X16038805Y-25791286D01*
X16038805Y-25791286D02*
X16181662Y-25838905D01*
X16181662Y-25838905D02*
X16229281Y-25886524D01*
X17181662Y-26791286D02*
X16610234Y-26791286D01*
X16895948Y-26791286D02*
X16895948Y-25791286D01*
X16895948Y-25791286D02*
X16800710Y-25934143D01*
X16800710Y-25934143D02*
X16705472Y-26029381D01*
X16705472Y-26029381D02*
X16610234Y-26077000D01*
X17562615Y-25886524D02*
X17610234Y-25838905D01*
X17610234Y-25838905D02*
X17705472Y-25791286D01*
X17705472Y-25791286D02*
X17943567Y-25791286D01*
X17943567Y-25791286D02*
X18038805Y-25838905D01*
X18038805Y-25838905D02*
X18086424Y-25886524D01*
X18086424Y-25886524D02*
X18134043Y-25981762D01*
X18134043Y-25981762D02*
X18134043Y-26077000D01*
X18134043Y-26077000D02*
X18086424Y-26219857D01*
X18086424Y-26219857D02*
X17514996Y-26791286D01*
X17514996Y-26791286D02*
X18134043Y-26791286D01*
X29666666Y-16124819D02*
X29666666Y-16839104D01*
X29666666Y-16839104D02*
X29619047Y-16981961D01*
X29619047Y-16981961D02*
X29523809Y-17077200D01*
X29523809Y-17077200D02*
X29380952Y-17124819D01*
X29380952Y-17124819D02*
X29285714Y-17124819D01*
X30666666Y-17124819D02*
X30095238Y-17124819D01*
X30380952Y-17124819D02*
X30380952Y-16124819D01*
X30380952Y-16124819D02*
X30285714Y-16267676D01*
X30285714Y-16267676D02*
X30190476Y-16362914D01*
X30190476Y-16362914D02*
X30095238Y-16410533D01*
X14838095Y-46154819D02*
X14838095Y-46964342D01*
X14838095Y-46964342D02*
X14885714Y-47059580D01*
X14885714Y-47059580D02*
X14933333Y-47107200D01*
X14933333Y-47107200D02*
X15028571Y-47154819D01*
X15028571Y-47154819D02*
X15219047Y-47154819D01*
X15219047Y-47154819D02*
X15314285Y-47107200D01*
X15314285Y-47107200D02*
X15361904Y-47059580D01*
X15361904Y-47059580D02*
X15409523Y-46964342D01*
X15409523Y-46964342D02*
X15409523Y-46154819D01*
X16409523Y-47154819D02*
X15838095Y-47154819D01*
X16123809Y-47154819D02*
X16123809Y-46154819D01*
X16123809Y-46154819D02*
X16028571Y-46297676D01*
X16028571Y-46297676D02*
X15933333Y-46392914D01*
X15933333Y-46392914D02*
X15838095Y-46440533D01*
X25073809Y-21935540D02*
X25073809Y-22411731D01*
X24740476Y-21411731D02*
X25073809Y-21935540D01*
X25073809Y-21935540D02*
X25407142Y-21411731D01*
X26264285Y-22411731D02*
X25692857Y-22411731D01*
X25978571Y-22411731D02*
X25978571Y-21411731D01*
X25978571Y-21411731D02*
X25883333Y-21554588D01*
X25883333Y-21554588D02*
X25788095Y-21649826D01*
X25788095Y-21649826D02*
X25692857Y-21697445D01*
D11*
X28159800Y-52633332D02*
X28207419Y-52490475D01*
X28207419Y-52490475D02*
X28207419Y-52252380D01*
X28207419Y-52252380D02*
X28159800Y-52157142D01*
X28159800Y-52157142D02*
X28112180Y-52109523D01*
X28112180Y-52109523D02*
X28016942Y-52061904D01*
X28016942Y-52061904D02*
X27921704Y-52061904D01*
X27921704Y-52061904D02*
X27826466Y-52109523D01*
X27826466Y-52109523D02*
X27778847Y-52157142D01*
X27778847Y-52157142D02*
X27731228Y-52252380D01*
X27731228Y-52252380D02*
X27683609Y-52442856D01*
X27683609Y-52442856D02*
X27635990Y-52538094D01*
X27635990Y-52538094D02*
X27588371Y-52585713D01*
X27588371Y-52585713D02*
X27493133Y-52633332D01*
X27493133Y-52633332D02*
X27397895Y-52633332D01*
X27397895Y-52633332D02*
X27302657Y-52585713D01*
X27302657Y-52585713D02*
X27255038Y-52538094D01*
X27255038Y-52538094D02*
X27207419Y-52442856D01*
X27207419Y-52442856D02*
X27207419Y-52204761D01*
X27207419Y-52204761D02*
X27255038Y-52061904D01*
X27207419Y-51728570D02*
X28207419Y-51490475D01*
X28207419Y-51490475D02*
X27493133Y-51299999D01*
X27493133Y-51299999D02*
X28207419Y-51109523D01*
X28207419Y-51109523D02*
X27207419Y-50871428D01*
X28207419Y-49966666D02*
X28207419Y-50538094D01*
X28207419Y-50252380D02*
X27207419Y-50252380D01*
X27207419Y-50252380D02*
X27350276Y-50347618D01*
X27350276Y-50347618D02*
X27445514Y-50442856D01*
X27445514Y-50442856D02*
X27493133Y-50538094D01*
D10*
X23733333Y-51424819D02*
X23400000Y-50948628D01*
X23161905Y-51424819D02*
X23161905Y-50424819D01*
X23161905Y-50424819D02*
X23542857Y-50424819D01*
X23542857Y-50424819D02*
X23638095Y-50472438D01*
X23638095Y-50472438D02*
X23685714Y-50520057D01*
X23685714Y-50520057D02*
X23733333Y-50615295D01*
X23733333Y-50615295D02*
X23733333Y-50758152D01*
X23733333Y-50758152D02*
X23685714Y-50853390D01*
X23685714Y-50853390D02*
X23638095Y-50901009D01*
X23638095Y-50901009D02*
X23542857Y-50948628D01*
X23542857Y-50948628D02*
X23161905Y-50948628D01*
X24066667Y-50424819D02*
X24685714Y-50424819D01*
X24685714Y-50424819D02*
X24352381Y-50805771D01*
X24352381Y-50805771D02*
X24495238Y-50805771D01*
X24495238Y-50805771D02*
X24590476Y-50853390D01*
X24590476Y-50853390D02*
X24638095Y-50901009D01*
X24638095Y-50901009D02*
X24685714Y-50996247D01*
X24685714Y-50996247D02*
X24685714Y-51234342D01*
X24685714Y-51234342D02*
X24638095Y-51329580D01*
X24638095Y-51329580D02*
X24590476Y-51377200D01*
X24590476Y-51377200D02*
X24495238Y-51424819D01*
X24495238Y-51424819D02*
X24209524Y-51424819D01*
X24209524Y-51424819D02*
X24114286Y-51377200D01*
X24114286Y-51377200D02*
X24066667Y-51329580D01*
X27184819Y-45916666D02*
X26708628Y-46249999D01*
X27184819Y-46488094D02*
X26184819Y-46488094D01*
X26184819Y-46488094D02*
X26184819Y-46107142D01*
X26184819Y-46107142D02*
X26232438Y-46011904D01*
X26232438Y-46011904D02*
X26280057Y-45964285D01*
X26280057Y-45964285D02*
X26375295Y-45916666D01*
X26375295Y-45916666D02*
X26518152Y-45916666D01*
X26518152Y-45916666D02*
X26613390Y-45964285D01*
X26613390Y-45964285D02*
X26661009Y-46011904D01*
X26661009Y-46011904D02*
X26708628Y-46107142D01*
X26708628Y-46107142D02*
X26708628Y-46488094D01*
X26280057Y-45535713D02*
X26232438Y-45488094D01*
X26232438Y-45488094D02*
X26184819Y-45392856D01*
X26184819Y-45392856D02*
X26184819Y-45154761D01*
X26184819Y-45154761D02*
X26232438Y-45059523D01*
X26232438Y-45059523D02*
X26280057Y-45011904D01*
X26280057Y-45011904D02*
X26375295Y-44964285D01*
X26375295Y-44964285D02*
X26470533Y-44964285D01*
X26470533Y-44964285D02*
X26613390Y-45011904D01*
X26613390Y-45011904D02*
X27184819Y-45583332D01*
X27184819Y-45583332D02*
X27184819Y-44964285D01*
X13383333Y-59154819D02*
X13050000Y-58678628D01*
X12811905Y-59154819D02*
X12811905Y-58154819D01*
X12811905Y-58154819D02*
X13192857Y-58154819D01*
X13192857Y-58154819D02*
X13288095Y-58202438D01*
X13288095Y-58202438D02*
X13335714Y-58250057D01*
X13335714Y-58250057D02*
X13383333Y-58345295D01*
X13383333Y-58345295D02*
X13383333Y-58488152D01*
X13383333Y-58488152D02*
X13335714Y-58583390D01*
X13335714Y-58583390D02*
X13288095Y-58631009D01*
X13288095Y-58631009D02*
X13192857Y-58678628D01*
X13192857Y-58678628D02*
X12811905Y-58678628D01*
X14335714Y-59154819D02*
X13764286Y-59154819D01*
X14050000Y-59154819D02*
X14050000Y-58154819D01*
X14050000Y-58154819D02*
X13954762Y-58297676D01*
X13954762Y-58297676D02*
X13859524Y-58392914D01*
X13859524Y-58392914D02*
X13764286Y-58440533D01*
X21666666Y-55642319D02*
X21666666Y-56356604D01*
X21666666Y-56356604D02*
X21619047Y-56499461D01*
X21619047Y-56499461D02*
X21523809Y-56594700D01*
X21523809Y-56594700D02*
X21380952Y-56642319D01*
X21380952Y-56642319D02*
X21285714Y-56642319D01*
X22047619Y-55642319D02*
X22666666Y-55642319D01*
X22666666Y-55642319D02*
X22333333Y-56023271D01*
X22333333Y-56023271D02*
X22476190Y-56023271D01*
X22476190Y-56023271D02*
X22571428Y-56070890D01*
X22571428Y-56070890D02*
X22619047Y-56118509D01*
X22619047Y-56118509D02*
X22666666Y-56213747D01*
X22666666Y-56213747D02*
X22666666Y-56451842D01*
X22666666Y-56451842D02*
X22619047Y-56547080D01*
X22619047Y-56547080D02*
X22571428Y-56594700D01*
X22571428Y-56594700D02*
X22476190Y-56642319D01*
X22476190Y-56642319D02*
X22190476Y-56642319D01*
X22190476Y-56642319D02*
X22095238Y-56594700D01*
X22095238Y-56594700D02*
X22047619Y-56547080D01*
X13666666Y-16544819D02*
X13666666Y-17259104D01*
X13666666Y-17259104D02*
X13619047Y-17401961D01*
X13619047Y-17401961D02*
X13523809Y-17497200D01*
X13523809Y-17497200D02*
X13380952Y-17544819D01*
X13380952Y-17544819D02*
X13285714Y-17544819D01*
X14095238Y-16640057D02*
X14142857Y-16592438D01*
X14142857Y-16592438D02*
X14238095Y-16544819D01*
X14238095Y-16544819D02*
X14476190Y-16544819D01*
X14476190Y-16544819D02*
X14571428Y-16592438D01*
X14571428Y-16592438D02*
X14619047Y-16640057D01*
X14619047Y-16640057D02*
X14666666Y-16735295D01*
X14666666Y-16735295D02*
X14666666Y-16830533D01*
X14666666Y-16830533D02*
X14619047Y-16973390D01*
X14619047Y-16973390D02*
X14047619Y-17544819D01*
X14047619Y-17544819D02*
X14666666Y-17544819D01*
X19293525Y-29056213D02*
X19293525Y-29389546D01*
X19817335Y-29389546D02*
X18817335Y-29389546D01*
X18817335Y-29389546D02*
X18817335Y-28913356D01*
X19293525Y-28199070D02*
X19341144Y-28056213D01*
X19341144Y-28056213D02*
X19388763Y-28008594D01*
X19388763Y-28008594D02*
X19484001Y-27960975D01*
X19484001Y-27960975D02*
X19626858Y-27960975D01*
X19626858Y-27960975D02*
X19722096Y-28008594D01*
X19722096Y-28008594D02*
X19769716Y-28056213D01*
X19769716Y-28056213D02*
X19817335Y-28151451D01*
X19817335Y-28151451D02*
X19817335Y-28532403D01*
X19817335Y-28532403D02*
X18817335Y-28532403D01*
X18817335Y-28532403D02*
X18817335Y-28199070D01*
X18817335Y-28199070D02*
X18864954Y-28103832D01*
X18864954Y-28103832D02*
X18912573Y-28056213D01*
X18912573Y-28056213D02*
X19007811Y-28008594D01*
X19007811Y-28008594D02*
X19103049Y-28008594D01*
X19103049Y-28008594D02*
X19198287Y-28056213D01*
X19198287Y-28056213D02*
X19245906Y-28103832D01*
X19245906Y-28103832D02*
X19293525Y-28199070D01*
X19293525Y-28199070D02*
X19293525Y-28532403D01*
X19817335Y-27008594D02*
X19817335Y-27580022D01*
X19817335Y-27294308D02*
X18817335Y-27294308D01*
X18817335Y-27294308D02*
X18960192Y-27389546D01*
X18960192Y-27389546D02*
X19055430Y-27484784D01*
X19055430Y-27484784D02*
X19103049Y-27580022D01*
X15404819Y-59238094D02*
X14404819Y-59238094D01*
X14404819Y-59238094D02*
X14404819Y-58999999D01*
X14404819Y-58999999D02*
X14452438Y-58857142D01*
X14452438Y-58857142D02*
X14547676Y-58761904D01*
X14547676Y-58761904D02*
X14642914Y-58714285D01*
X14642914Y-58714285D02*
X14833390Y-58666666D01*
X14833390Y-58666666D02*
X14976247Y-58666666D01*
X14976247Y-58666666D02*
X15166723Y-58714285D01*
X15166723Y-58714285D02*
X15261961Y-58761904D01*
X15261961Y-58761904D02*
X15357200Y-58857142D01*
X15357200Y-58857142D02*
X15404819Y-58999999D01*
X15404819Y-58999999D02*
X15404819Y-59238094D01*
X15404819Y-57714285D02*
X15404819Y-58285713D01*
X15404819Y-57999999D02*
X14404819Y-57999999D01*
X14404819Y-57999999D02*
X14547676Y-58095237D01*
X14547676Y-58095237D02*
X14642914Y-58190475D01*
X14642914Y-58190475D02*
X14690533Y-58285713D01*
X16699580Y-28949769D02*
X16747200Y-28997388D01*
X16747200Y-28997388D02*
X16794819Y-29140245D01*
X16794819Y-29140245D02*
X16794819Y-29235483D01*
X16794819Y-29235483D02*
X16747200Y-29378340D01*
X16747200Y-29378340D02*
X16651961Y-29473578D01*
X16651961Y-29473578D02*
X16556723Y-29521197D01*
X16556723Y-29521197D02*
X16366247Y-29568816D01*
X16366247Y-29568816D02*
X16223390Y-29568816D01*
X16223390Y-29568816D02*
X16032914Y-29521197D01*
X16032914Y-29521197D02*
X15937676Y-29473578D01*
X15937676Y-29473578D02*
X15842438Y-29378340D01*
X15842438Y-29378340D02*
X15794819Y-29235483D01*
X15794819Y-29235483D02*
X15794819Y-29140245D01*
X15794819Y-29140245D02*
X15842438Y-28997388D01*
X15842438Y-28997388D02*
X15890057Y-28949769D01*
X16794819Y-27997388D02*
X16794819Y-28568816D01*
X16794819Y-28283102D02*
X15794819Y-28283102D01*
X15794819Y-28283102D02*
X15937676Y-28378340D01*
X15937676Y-28378340D02*
X16032914Y-28473578D01*
X16032914Y-28473578D02*
X16080533Y-28568816D01*
X15794819Y-27664054D02*
X15794819Y-27045007D01*
X15794819Y-27045007D02*
X16175771Y-27378340D01*
X16175771Y-27378340D02*
X16175771Y-27235483D01*
X16175771Y-27235483D02*
X16223390Y-27140245D01*
X16223390Y-27140245D02*
X16271009Y-27092626D01*
X16271009Y-27092626D02*
X16366247Y-27045007D01*
X16366247Y-27045007D02*
X16604342Y-27045007D01*
X16604342Y-27045007D02*
X16699580Y-27092626D01*
X16699580Y-27092626D02*
X16747200Y-27140245D01*
X16747200Y-27140245D02*
X16794819Y-27235483D01*
X16794819Y-27235483D02*
X16794819Y-27521197D01*
X16794819Y-27521197D02*
X16747200Y-27616435D01*
X16747200Y-27616435D02*
X16699580Y-27664054D01*
X15604168Y-37607435D02*
X15536824Y-37607435D01*
X15536824Y-37607435D02*
X15402137Y-37540091D01*
X15402137Y-37540091D02*
X15334794Y-37472748D01*
X15334794Y-37472748D02*
X15267450Y-37338061D01*
X15267450Y-37338061D02*
X15267450Y-37203374D01*
X15267450Y-37203374D02*
X15301122Y-37102359D01*
X15301122Y-37102359D02*
X15402137Y-36934000D01*
X15402137Y-36934000D02*
X15503152Y-36832985D01*
X15503152Y-36832985D02*
X15671511Y-36731969D01*
X15671511Y-36731969D02*
X15772526Y-36698298D01*
X15772526Y-36698298D02*
X15907213Y-36698298D01*
X15907213Y-36698298D02*
X16041900Y-36765641D01*
X16041900Y-36765641D02*
X16109244Y-36832985D01*
X16109244Y-36832985D02*
X16176587Y-36967672D01*
X16176587Y-36967672D02*
X16176587Y-37035015D01*
X15873542Y-38011496D02*
X16008229Y-38146183D01*
X16008229Y-38146183D02*
X16109244Y-38179855D01*
X16109244Y-38179855D02*
X16176587Y-38179855D01*
X16176587Y-38179855D02*
X16344946Y-38146183D01*
X16344946Y-38146183D02*
X16513305Y-38045168D01*
X16513305Y-38045168D02*
X16782679Y-37775794D01*
X16782679Y-37775794D02*
X16816351Y-37674778D01*
X16816351Y-37674778D02*
X16816351Y-37607435D01*
X16816351Y-37607435D02*
X16782679Y-37506420D01*
X16782679Y-37506420D02*
X16647992Y-37371733D01*
X16647992Y-37371733D02*
X16546977Y-37338061D01*
X16546977Y-37338061D02*
X16479633Y-37338061D01*
X16479633Y-37338061D02*
X16378618Y-37371733D01*
X16378618Y-37371733D02*
X16210259Y-37540091D01*
X16210259Y-37540091D02*
X16176587Y-37641107D01*
X16176587Y-37641107D02*
X16176587Y-37708450D01*
X16176587Y-37708450D02*
X16210259Y-37809465D01*
X16210259Y-37809465D02*
X16344946Y-37944152D01*
X16344946Y-37944152D02*
X16445961Y-37977824D01*
X16445961Y-37977824D02*
X16513305Y-37977824D01*
X16513305Y-37977824D02*
X16614320Y-37944152D01*
X26099144Y-27619941D02*
X26051525Y-27667561D01*
X26051525Y-27667561D02*
X25908668Y-27715180D01*
X25908668Y-27715180D02*
X25813430Y-27715180D01*
X25813430Y-27715180D02*
X25670573Y-27667561D01*
X25670573Y-27667561D02*
X25575335Y-27572322D01*
X25575335Y-27572322D02*
X25527716Y-27477084D01*
X25527716Y-27477084D02*
X25480097Y-27286608D01*
X25480097Y-27286608D02*
X25480097Y-27143751D01*
X25480097Y-27143751D02*
X25527716Y-26953275D01*
X25527716Y-26953275D02*
X25575335Y-26858037D01*
X25575335Y-26858037D02*
X25670573Y-26762799D01*
X25670573Y-26762799D02*
X25813430Y-26715180D01*
X25813430Y-26715180D02*
X25908668Y-26715180D01*
X25908668Y-26715180D02*
X26051525Y-26762799D01*
X26051525Y-26762799D02*
X26099144Y-26810418D01*
X26670573Y-27143751D02*
X26575335Y-27096132D01*
X26575335Y-27096132D02*
X26527716Y-27048513D01*
X26527716Y-27048513D02*
X26480097Y-26953275D01*
X26480097Y-26953275D02*
X26480097Y-26905656D01*
X26480097Y-26905656D02*
X26527716Y-26810418D01*
X26527716Y-26810418D02*
X26575335Y-26762799D01*
X26575335Y-26762799D02*
X26670573Y-26715180D01*
X26670573Y-26715180D02*
X26861049Y-26715180D01*
X26861049Y-26715180D02*
X26956287Y-26762799D01*
X26956287Y-26762799D02*
X27003906Y-26810418D01*
X27003906Y-26810418D02*
X27051525Y-26905656D01*
X27051525Y-26905656D02*
X27051525Y-26953275D01*
X27051525Y-26953275D02*
X27003906Y-27048513D01*
X27003906Y-27048513D02*
X26956287Y-27096132D01*
X26956287Y-27096132D02*
X26861049Y-27143751D01*
X26861049Y-27143751D02*
X26670573Y-27143751D01*
X26670573Y-27143751D02*
X26575335Y-27191370D01*
X26575335Y-27191370D02*
X26527716Y-27238989D01*
X26527716Y-27238989D02*
X26480097Y-27334227D01*
X26480097Y-27334227D02*
X26480097Y-27524703D01*
X26480097Y-27524703D02*
X26527716Y-27619941D01*
X26527716Y-27619941D02*
X26575335Y-27667561D01*
X26575335Y-27667561D02*
X26670573Y-27715180D01*
X26670573Y-27715180D02*
X26861049Y-27715180D01*
X26861049Y-27715180D02*
X26956287Y-27667561D01*
X26956287Y-27667561D02*
X27003906Y-27619941D01*
X27003906Y-27619941D02*
X27051525Y-27524703D01*
X27051525Y-27524703D02*
X27051525Y-27334227D01*
X27051525Y-27334227D02*
X27003906Y-27238989D01*
X27003906Y-27238989D02*
X26956287Y-27191370D01*
X26956287Y-27191370D02*
X26861049Y-27143751D01*
X20732701Y-28076492D02*
X20685082Y-28124112D01*
X20685082Y-28124112D02*
X20542225Y-28171731D01*
X20542225Y-28171731D02*
X20446987Y-28171731D01*
X20446987Y-28171731D02*
X20304130Y-28124112D01*
X20304130Y-28124112D02*
X20208892Y-28028873D01*
X20208892Y-28028873D02*
X20161273Y-27933635D01*
X20161273Y-27933635D02*
X20113654Y-27743159D01*
X20113654Y-27743159D02*
X20113654Y-27600302D01*
X20113654Y-27600302D02*
X20161273Y-27409826D01*
X20161273Y-27409826D02*
X20208892Y-27314588D01*
X20208892Y-27314588D02*
X20304130Y-27219350D01*
X20304130Y-27219350D02*
X20446987Y-27171731D01*
X20446987Y-27171731D02*
X20542225Y-27171731D01*
X20542225Y-27171731D02*
X20685082Y-27219350D01*
X20685082Y-27219350D02*
X20732701Y-27266969D01*
X21066035Y-27171731D02*
X21732701Y-27171731D01*
X21732701Y-27171731D02*
X21304130Y-28171731D01*
X21732701Y-27166492D02*
X21685082Y-27214112D01*
X21685082Y-27214112D02*
X21542225Y-27261731D01*
X21542225Y-27261731D02*
X21446987Y-27261731D01*
X21446987Y-27261731D02*
X21304130Y-27214112D01*
X21304130Y-27214112D02*
X21208892Y-27118873D01*
X21208892Y-27118873D02*
X21161273Y-27023635D01*
X21161273Y-27023635D02*
X21113654Y-26833159D01*
X21113654Y-26833159D02*
X21113654Y-26690302D01*
X21113654Y-26690302D02*
X21161273Y-26499826D01*
X21161273Y-26499826D02*
X21208892Y-26404588D01*
X21208892Y-26404588D02*
X21304130Y-26309350D01*
X21304130Y-26309350D02*
X21446987Y-26261731D01*
X21446987Y-26261731D02*
X21542225Y-26261731D01*
X21542225Y-26261731D02*
X21685082Y-26309350D01*
X21685082Y-26309350D02*
X21732701Y-26356969D01*
X22589844Y-26261731D02*
X22399368Y-26261731D01*
X22399368Y-26261731D02*
X22304130Y-26309350D01*
X22304130Y-26309350D02*
X22256511Y-26356969D01*
X22256511Y-26356969D02*
X22161273Y-26499826D01*
X22161273Y-26499826D02*
X22113654Y-26690302D01*
X22113654Y-26690302D02*
X22113654Y-27071254D01*
X22113654Y-27071254D02*
X22161273Y-27166492D01*
X22161273Y-27166492D02*
X22208892Y-27214112D01*
X22208892Y-27214112D02*
X22304130Y-27261731D01*
X22304130Y-27261731D02*
X22494606Y-27261731D01*
X22494606Y-27261731D02*
X22589844Y-27214112D01*
X22589844Y-27214112D02*
X22637463Y-27166492D01*
X22637463Y-27166492D02*
X22685082Y-27071254D01*
X22685082Y-27071254D02*
X22685082Y-26833159D01*
X22685082Y-26833159D02*
X22637463Y-26737921D01*
X22637463Y-26737921D02*
X22589844Y-26690302D01*
X22589844Y-26690302D02*
X22494606Y-26642683D01*
X22494606Y-26642683D02*
X22304130Y-26642683D01*
X22304130Y-26642683D02*
X22208892Y-26690302D01*
X22208892Y-26690302D02*
X22161273Y-26737921D01*
X22161273Y-26737921D02*
X22113654Y-26833159D01*
X22226362Y-40809580D02*
X22178743Y-40857200D01*
X22178743Y-40857200D02*
X22035886Y-40904819D01*
X22035886Y-40904819D02*
X21940648Y-40904819D01*
X21940648Y-40904819D02*
X21797791Y-40857200D01*
X21797791Y-40857200D02*
X21702553Y-40761961D01*
X21702553Y-40761961D02*
X21654934Y-40666723D01*
X21654934Y-40666723D02*
X21607315Y-40476247D01*
X21607315Y-40476247D02*
X21607315Y-40333390D01*
X21607315Y-40333390D02*
X21654934Y-40142914D01*
X21654934Y-40142914D02*
X21702553Y-40047676D01*
X21702553Y-40047676D02*
X21797791Y-39952438D01*
X21797791Y-39952438D02*
X21940648Y-39904819D01*
X21940648Y-39904819D02*
X22035886Y-39904819D01*
X22035886Y-39904819D02*
X22178743Y-39952438D01*
X22178743Y-39952438D02*
X22226362Y-40000057D01*
X23131124Y-39904819D02*
X22654934Y-39904819D01*
X22654934Y-39904819D02*
X22607315Y-40381009D01*
X22607315Y-40381009D02*
X22654934Y-40333390D01*
X22654934Y-40333390D02*
X22750172Y-40285771D01*
X22750172Y-40285771D02*
X22988267Y-40285771D01*
X22988267Y-40285771D02*
X23083505Y-40333390D01*
X23083505Y-40333390D02*
X23131124Y-40381009D01*
X23131124Y-40381009D02*
X23178743Y-40476247D01*
X23178743Y-40476247D02*
X23178743Y-40714342D01*
X23178743Y-40714342D02*
X23131124Y-40809580D01*
X23131124Y-40809580D02*
X23083505Y-40857200D01*
X23083505Y-40857200D02*
X22988267Y-40904819D01*
X22988267Y-40904819D02*
X22750172Y-40904819D01*
X22750172Y-40904819D02*
X22654934Y-40857200D01*
X22654934Y-40857200D02*
X22607315Y-40809580D01*
X23059580Y-50416666D02*
X23107200Y-50464285D01*
X23107200Y-50464285D02*
X23154819Y-50607142D01*
X23154819Y-50607142D02*
X23154819Y-50702380D01*
X23154819Y-50702380D02*
X23107200Y-50845237D01*
X23107200Y-50845237D02*
X23011961Y-50940475D01*
X23011961Y-50940475D02*
X22916723Y-50988094D01*
X22916723Y-50988094D02*
X22726247Y-51035713D01*
X22726247Y-51035713D02*
X22583390Y-51035713D01*
X22583390Y-51035713D02*
X22392914Y-50988094D01*
X22392914Y-50988094D02*
X22297676Y-50940475D01*
X22297676Y-50940475D02*
X22202438Y-50845237D01*
X22202438Y-50845237D02*
X22154819Y-50702380D01*
X22154819Y-50702380D02*
X22154819Y-50607142D01*
X22154819Y-50607142D02*
X22202438Y-50464285D01*
X22202438Y-50464285D02*
X22250057Y-50416666D01*
X22488152Y-49559523D02*
X23154819Y-49559523D01*
X22107200Y-49797618D02*
X22821485Y-50035713D01*
X22821485Y-50035713D02*
X22821485Y-49416666D01*
X18949580Y-24673578D02*
X18997200Y-24721197D01*
X18997200Y-24721197D02*
X19044819Y-24864054D01*
X19044819Y-24864054D02*
X19044819Y-24959292D01*
X19044819Y-24959292D02*
X18997200Y-25102149D01*
X18997200Y-25102149D02*
X18901961Y-25197387D01*
X18901961Y-25197387D02*
X18806723Y-25245006D01*
X18806723Y-25245006D02*
X18616247Y-25292625D01*
X18616247Y-25292625D02*
X18473390Y-25292625D01*
X18473390Y-25292625D02*
X18282914Y-25245006D01*
X18282914Y-25245006D02*
X18187676Y-25197387D01*
X18187676Y-25197387D02*
X18092438Y-25102149D01*
X18092438Y-25102149D02*
X18044819Y-24959292D01*
X18044819Y-24959292D02*
X18044819Y-24864054D01*
X18044819Y-24864054D02*
X18092438Y-24721197D01*
X18092438Y-24721197D02*
X18140057Y-24673578D01*
X18044819Y-24340244D02*
X18044819Y-23721197D01*
X18044819Y-23721197D02*
X18425771Y-24054530D01*
X18425771Y-24054530D02*
X18425771Y-23911673D01*
X18425771Y-23911673D02*
X18473390Y-23816435D01*
X18473390Y-23816435D02*
X18521009Y-23768816D01*
X18521009Y-23768816D02*
X18616247Y-23721197D01*
X18616247Y-23721197D02*
X18854342Y-23721197D01*
X18854342Y-23721197D02*
X18949580Y-23768816D01*
X18949580Y-23768816D02*
X18997200Y-23816435D01*
X18997200Y-23816435D02*
X19044819Y-23911673D01*
X19044819Y-23911673D02*
X19044819Y-24197387D01*
X19044819Y-24197387D02*
X18997200Y-24292625D01*
X18997200Y-24292625D02*
X18949580Y-24340244D01*
X27069580Y-24523578D02*
X27117200Y-24571197D01*
X27117200Y-24571197D02*
X27164819Y-24714054D01*
X27164819Y-24714054D02*
X27164819Y-24809292D01*
X27164819Y-24809292D02*
X27117200Y-24952149D01*
X27117200Y-24952149D02*
X27021961Y-25047387D01*
X27021961Y-25047387D02*
X26926723Y-25095006D01*
X26926723Y-25095006D02*
X26736247Y-25142625D01*
X26736247Y-25142625D02*
X26593390Y-25142625D01*
X26593390Y-25142625D02*
X26402914Y-25095006D01*
X26402914Y-25095006D02*
X26307676Y-25047387D01*
X26307676Y-25047387D02*
X26212438Y-24952149D01*
X26212438Y-24952149D02*
X26164819Y-24809292D01*
X26164819Y-24809292D02*
X26164819Y-24714054D01*
X26164819Y-24714054D02*
X26212438Y-24571197D01*
X26212438Y-24571197D02*
X26260057Y-24523578D01*
X26260057Y-24142625D02*
X26212438Y-24095006D01*
X26212438Y-24095006D02*
X26164819Y-23999768D01*
X26164819Y-23999768D02*
X26164819Y-23761673D01*
X26164819Y-23761673D02*
X26212438Y-23666435D01*
X26212438Y-23666435D02*
X26260057Y-23618816D01*
X26260057Y-23618816D02*
X26355295Y-23571197D01*
X26355295Y-23571197D02*
X26450533Y-23571197D01*
X26450533Y-23571197D02*
X26593390Y-23618816D01*
X26593390Y-23618816D02*
X27164819Y-24190244D01*
X27164819Y-24190244D02*
X27164819Y-23571197D01*
X19288479Y-54238525D02*
X19336099Y-54286144D01*
X19336099Y-54286144D02*
X19383718Y-54429001D01*
X19383718Y-54429001D02*
X19383718Y-54524239D01*
X19383718Y-54524239D02*
X19336099Y-54667096D01*
X19336099Y-54667096D02*
X19240860Y-54762334D01*
X19240860Y-54762334D02*
X19145622Y-54809953D01*
X19145622Y-54809953D02*
X18955146Y-54857572D01*
X18955146Y-54857572D02*
X18812289Y-54857572D01*
X18812289Y-54857572D02*
X18621813Y-54809953D01*
X18621813Y-54809953D02*
X18526575Y-54762334D01*
X18526575Y-54762334D02*
X18431337Y-54667096D01*
X18431337Y-54667096D02*
X18383718Y-54524239D01*
X18383718Y-54524239D02*
X18383718Y-54429001D01*
X18383718Y-54429001D02*
X18431337Y-54286144D01*
X18431337Y-54286144D02*
X18478956Y-54238525D01*
X19383718Y-53286144D02*
X19383718Y-53857572D01*
X19383718Y-53571858D02*
X18383718Y-53571858D01*
X18383718Y-53571858D02*
X18526575Y-53667096D01*
X18526575Y-53667096D02*
X18621813Y-53762334D01*
X18621813Y-53762334D02*
X18669432Y-53857572D01*
D12*
%TO.C,C10*%
X24657836Y-38140000D02*
X24442164Y-38140000D01*
X24657836Y-38860000D02*
X24442164Y-38860000D01*
%TO.C,C11*%
X19204729Y-27304440D02*
X18989057Y-27304440D01*
X19204729Y-26584440D02*
X18989057Y-26584440D01*
%TO.C,C12*%
X18461978Y-25545871D02*
X18246306Y-25545871D01*
X18461978Y-26265871D02*
X18246306Y-26265871D01*
%TO.C,J1*%
X28670000Y-17670000D02*
X30000000Y-17670000D01*
X28670000Y-19000000D02*
X28670000Y-17670000D01*
X28670000Y-20270000D02*
X28670000Y-43190000D01*
X28670000Y-20270000D02*
X31330000Y-20270000D01*
X28670000Y-43190000D02*
X31330000Y-43190000D01*
X31330000Y-20270000D02*
X31330000Y-43190000D01*
%TO.C,U1*%
X12690000Y-55130000D02*
X12360000Y-55370000D01*
X12360000Y-54890000D01*
X12690000Y-55130000D01*
G36*
X12690000Y-55130000D02*
G01*
X12360000Y-55370000D01*
X12360000Y-54890000D01*
X12690000Y-55130000D01*
G37*
X19410000Y-50090000D02*
X18150000Y-50090000D01*
X12590000Y-50090000D02*
X13850000Y-50090000D01*
X19410000Y-53850000D02*
X19410000Y-50090000D01*
X12590000Y-53850000D02*
X12590000Y-50090000D01*
%TO.C,Y1*%
X24650000Y-25956912D02*
X24650000Y-22656912D01*
X24650000Y-22656912D02*
X20650000Y-22656912D01*
D13*
%TO.C,SW1*%
X26389000Y-55900000D02*
X28050000Y-55900000D01*
X26389000Y-55900000D02*
X26389000Y-54100000D01*
X31750000Y-55900000D02*
X30050000Y-55900000D01*
X31750000Y-55900000D02*
X31750000Y-53300000D01*
X26389000Y-47100000D02*
X26389000Y-48900000D01*
X26389000Y-47100000D02*
X28050000Y-47100000D01*
X31750000Y-47100000D02*
X31750000Y-49700000D01*
X31750000Y-47100000D02*
X30050000Y-47100000D01*
D12*
%TO.C,R3*%
X24053641Y-50180000D02*
X23746359Y-50180000D01*
X24053641Y-49420000D02*
X23746359Y-49420000D01*
%TO.C,R2*%
X27520000Y-45903641D02*
X27520000Y-45596359D01*
X28280000Y-45903641D02*
X28280000Y-45596359D01*
%TO.C,R1*%
X14142676Y-59472750D02*
X14449958Y-59472750D01*
X14142676Y-60232750D02*
X14449958Y-60232750D01*
%TO.C,J3*%
X18100000Y-57537500D02*
X18550000Y-57537500D01*
X18100000Y-59387500D02*
X18100000Y-57537500D01*
X18100000Y-61937500D02*
X18100000Y-61687500D01*
X20300000Y-56987500D02*
X20300000Y-57437500D01*
X20300000Y-56987500D02*
X20750000Y-56987500D01*
X25900000Y-57537500D02*
X25450000Y-57537500D01*
X25900000Y-59387500D02*
X25900000Y-57537500D01*
X25900000Y-61937500D02*
X25900000Y-61687500D01*
%TO.C,J2*%
X12670000Y-18090000D02*
X14000000Y-18090000D01*
X12670000Y-19420000D02*
X12670000Y-18090000D01*
X12670000Y-20690000D02*
X12670000Y-43610000D01*
X12670000Y-20690000D02*
X15330000Y-20690000D01*
X12670000Y-43610000D02*
X15330000Y-43610000D01*
X15330000Y-20690000D02*
X15330000Y-43610000D01*
%TO.C,D1*%
X15640000Y-60185000D02*
X17560000Y-60185000D01*
X17560000Y-60185000D02*
X17560000Y-57500000D01*
X15640000Y-57500000D02*
X15640000Y-60185000D01*
%TO.C,C13*%
X17140000Y-28414748D02*
X17140000Y-28199076D01*
X17860000Y-28414748D02*
X17860000Y-28199076D01*
%TO.C,C9*%
X16618218Y-36981590D02*
X16465715Y-36829087D01*
X17127335Y-36472473D02*
X16974832Y-36319970D01*
%TO.C,C8*%
X26157975Y-28060361D02*
X26373647Y-28060361D01*
X26157975Y-28780361D02*
X26373647Y-28780361D01*
%TO.C,C7*%
X21107836Y-26916912D02*
X20892164Y-26916912D01*
X21107836Y-26196912D02*
X20892164Y-26196912D01*
%TO.C,C6*%
X24347433Y-27393813D02*
X24131761Y-27393813D01*
X24347433Y-26673813D02*
X24131761Y-26673813D01*
%TO.C,C5*%
X25040580Y-40272471D02*
X24759420Y-40272471D01*
X25040580Y-39252471D02*
X24759420Y-39252471D01*
%TO.C,C4*%
X21335000Y-49738748D02*
X21335000Y-50261252D01*
X19865000Y-49738748D02*
X19865000Y-50261252D01*
%TO.C,C3*%
X19390000Y-24614748D02*
X19390000Y-24399076D01*
X20110000Y-24614748D02*
X20110000Y-24399076D01*
%TO.C,C2*%
X25910000Y-24249076D02*
X25910000Y-24464748D01*
X25190000Y-24249076D02*
X25190000Y-24464748D01*
%TO.C,C1*%
X21343899Y-54333111D02*
X21343899Y-53810607D01*
X19873899Y-54333111D02*
X19873899Y-53810607D01*
%TO.C,U2*%
X25630000Y-28946912D02*
X25160000Y-28606912D01*
X25630000Y-28266912D01*
X25630000Y-28946912D01*
G36*
X25630000Y-28946912D02*
G01*
X25160000Y-28606912D01*
X25630000Y-28266912D01*
X25630000Y-28946912D01*
G37*
D10*
X18390000Y-36416912D02*
X18840000Y-36416912D01*
X25610000Y-36416912D02*
X25160000Y-36416912D01*
X18390000Y-35966912D02*
X18390000Y-36416912D01*
X25610000Y-35966912D02*
X25610000Y-36416912D01*
X18390000Y-29646912D02*
X18390000Y-29196912D01*
X25610000Y-29646912D02*
X25610000Y-29196912D01*
X18390000Y-29196912D02*
X18840000Y-29196912D01*
X25610000Y-29196912D02*
X25160000Y-29196912D01*
%TD*%
M02*
