M48
; DRILL file {KiCad 9.0.0} date 2025-06-28T10:43:15-0700
; FORMAT={-:-/ absolute / metric / decimal}
; #@! TF.CreationDate,2025-06-28T10:43:15-07:00
; #@! TF.GenerationSoftware,Kicad,Pcbnew,9.0.0
; #@! TF.FileFunction,Plated,1,2,PTH
FMAT,2
METRIC
; #@! TA.AperFunction,Plated,PTH,ViaDrill
T1C0.300
; #@! TA.AperFunction,Plated,PTH,ComponentDrill
T2C0.600
; #@! TA.AperFunction,Plated,PTH,ComponentDrill
T3C0.850
; #@! TA.AperFunction,Plated,PTH,ComponentDrill
T4C1.000
%
G90
G05
T1
X13.25Y-56.75
X13.75Y-57.5
X14.0Y-56.75
X14.5Y-57.5
X14.75Y-56.75
X17.736Y-38.5
X17.736Y-40.5
X17.95Y-27.207
X19.1Y-34.7
X20.2Y-23.507
X20.6Y-52.05
X21.2Y-29.8
X23.1Y-35.7
X24.0Y-56.5
X24.1Y-40.6
X24.25Y-26.307
X24.5Y-30.7
X24.5Y-56.0
X24.92Y-34.8
X26.0Y-36.307
X26.0Y-56.75
X26.0Y-59.0
X26.5Y-29.407
X27.15Y-41.5
X27.603Y-33.303
T3
X19.5Y-57.837
X24.5Y-57.837
T4
X14.0Y-19.42
X14.0Y-21.96
X14.0Y-24.5
X14.0Y-27.04
X14.0Y-29.58
X14.0Y-32.12
X14.0Y-34.66
X14.0Y-37.2
X14.0Y-39.74
X14.0Y-42.28
X30.0Y-19.0
X30.0Y-21.54
X30.0Y-24.08
X30.0Y-26.62
X30.0Y-29.16
X30.0Y-31.7
X30.0Y-34.24
X30.0Y-36.78
X30.0Y-39.32
X30.0Y-41.86
T2
G00X18.5Y-60.887
M15
G01X18.5Y-60.188
M16
G05
G00X25.5Y-60.188
M15
G01X25.5Y-60.887
M16
G05
M30
