%TF.GenerationSoftware,KiCad,Pcbnew,9.0.0*%
%TF.CreationDate,2025-06-28T10:43:13-07:00*%
%TF.ProjectId,STM 32 devboard,53544d20-3332-4206-9465-76626f617264,rev?*%
%TF.SameCoordinates,Original*%
%TF.FileFunction,Copper,L1,Top*%
%TF.FilePolarity,Positive*%
%FSLAX46Y46*%
G04 Gerber Fmt 4.6, Leading zero omitted, Abs format (unit mm)*
G04 Created by KiCad (PCBNEW 9.0.0) date 2025-06-28 10:43:13*
%MOMM*%
%LPD*%
G01*
G04 APERTURE LIST*
G04 Aperture macros list*
%AMRoundRect*
0 Rectangle with rounded corners*
0 $1 Rounding radius*
0 $2 $3 $4 $5 $6 $7 $8 $9 X,Y pos of 4 corners*
0 Add a 4 corners polygon primitive as box body*
4,1,4,$2,$3,$4,$5,$6,$7,$8,$9,$2,$3,0*
0 Add four circle primitives for the rounded corners*
1,1,$1+$1,$2,$3*
1,1,$1+$1,$4,$5*
1,1,$1+$1,$6,$7*
1,1,$1+$1,$8,$9*
0 Add four rect primitives between the rounded corners*
20,1,$1+$1,$2,$3,$4,$5,0*
20,1,$1+$1,$4,$5,$6,$7,0*
20,1,$1+$1,$6,$7,$8,$9,0*
20,1,$1+$1,$8,$9,$2,$3,0*%
G04 Aperture macros list end*
%TA.AperFunction,SMDPad,CuDef*%
%ADD10RoundRect,0.140000X0.140000X0.170000X-0.140000X0.170000X-0.140000X-0.170000X0.140000X-0.170000X0*%
%TD*%
%TA.AperFunction,ComponentPad*%
%ADD11R,1.700000X1.700000*%
%TD*%
%TA.AperFunction,ComponentPad*%
%ADD12O,1.700000X1.700000*%
%TD*%
%TA.AperFunction,SMDPad,CuDef*%
%ADD13RoundRect,0.375000X0.375000X-0.625000X0.375000X0.625000X-0.375000X0.625000X-0.375000X-0.625000X0*%
%TD*%
%TA.AperFunction,SMDPad,CuDef*%
%ADD14RoundRect,0.500000X1.400000X-0.500000X1.400000X0.500000X-1.400000X0.500000X-1.400000X-0.500000X0*%
%TD*%
%TA.AperFunction,SMDPad,CuDef*%
%ADD15R,1.400000X1.200000*%
%TD*%
%TA.AperFunction,SMDPad,CuDef*%
%ADD16RoundRect,0.120000X0.630000X0.280000X-0.630000X0.280000X-0.630000X-0.280000X0.630000X-0.280000X0*%
%TD*%
%TA.AperFunction,SMDPad,CuDef*%
%ADD17RoundRect,0.135000X0.135000X0.185000X-0.135000X0.185000X-0.135000X-0.185000X0.135000X-0.185000X0*%
%TD*%
%TA.AperFunction,SMDPad,CuDef*%
%ADD18RoundRect,0.135000X0.185000X-0.135000X0.185000X0.135000X-0.185000X0.135000X-0.185000X-0.135000X0*%
%TD*%
%TA.AperFunction,SMDPad,CuDef*%
%ADD19RoundRect,0.135000X-0.135000X-0.185000X0.135000X-0.185000X0.135000X0.185000X-0.135000X0.185000X0*%
%TD*%
%TA.AperFunction,SMDPad,CuDef*%
%ADD20R,0.400000X1.350000*%
%TD*%
%TA.AperFunction,HeatsinkPad*%
%ADD21O,1.200000X1.900000*%
%TD*%
%TA.AperFunction,SMDPad,CuDef*%
%ADD22R,1.200000X1.900000*%
%TD*%
%TA.AperFunction,HeatsinkPad*%
%ADD23C,1.450000*%
%TD*%
%TA.AperFunction,SMDPad,CuDef*%
%ADD24R,1.500000X1.900000*%
%TD*%
%TA.AperFunction,SMDPad,CuDef*%
%ADD25RoundRect,0.100000X-0.100000X0.130000X-0.100000X-0.130000X0.100000X-0.130000X0.100000X0.130000X0*%
%TD*%
%TA.AperFunction,SMDPad,CuDef*%
%ADD26RoundRect,0.243750X0.456250X-0.243750X0.456250X0.243750X-0.456250X0.243750X-0.456250X-0.243750X0*%
%TD*%
%TA.AperFunction,SMDPad,CuDef*%
%ADD27RoundRect,0.140000X0.170000X-0.140000X0.170000X0.140000X-0.170000X0.140000X-0.170000X-0.140000X0*%
%TD*%
%TA.AperFunction,SMDPad,CuDef*%
%ADD28RoundRect,0.140000X0.219203X0.021213X0.021213X0.219203X-0.219203X-0.021213X-0.021213X-0.219203X0*%
%TD*%
%TA.AperFunction,SMDPad,CuDef*%
%ADD29RoundRect,0.140000X-0.140000X-0.170000X0.140000X-0.170000X0.140000X0.170000X-0.140000X0.170000X0*%
%TD*%
%TA.AperFunction,SMDPad,CuDef*%
%ADD30RoundRect,0.225000X0.225000X0.250000X-0.225000X0.250000X-0.225000X-0.250000X0.225000X-0.250000X0*%
%TD*%
%TA.AperFunction,SMDPad,CuDef*%
%ADD31RoundRect,0.250000X-0.475000X0.250000X-0.475000X-0.250000X0.475000X-0.250000X0.475000X0.250000X0*%
%TD*%
%TA.AperFunction,SMDPad,CuDef*%
%ADD32RoundRect,0.140000X-0.170000X0.140000X-0.170000X-0.140000X0.170000X-0.140000X0.170000X0.140000X0*%
%TD*%
%TA.AperFunction,SMDPad,CuDef*%
%ADD33RoundRect,0.250000X0.475000X-0.250000X0.475000X0.250000X-0.475000X0.250000X-0.475000X-0.250000X0*%
%TD*%
%TA.AperFunction,SMDPad,CuDef*%
%ADD34RoundRect,0.075000X-0.665000X0.075000X-0.665000X-0.075000X0.665000X-0.075000X0.665000X0.075000X0*%
%TD*%
%TA.AperFunction,SMDPad,CuDef*%
%ADD35RoundRect,0.075000X-0.075000X0.665000X-0.075000X-0.665000X0.075000X-0.665000X0.075000X0.665000X0*%
%TD*%
%TA.AperFunction,ViaPad*%
%ADD36C,0.600000*%
%TD*%
%TA.AperFunction,Conductor*%
%ADD37C,0.200000*%
%TD*%
G04 APERTURE END LIST*
D10*
%TO.P,C10,2*%
%TO.N,GND*%
X24070000Y-38500000D03*
%TO.P,C10,1*%
%TO.N,+3.3V*%
X25030000Y-38500000D03*
%TD*%
%TO.P,C11,2*%
%TO.N,GND*%
X18616893Y-26944440D03*
%TO.P,C11,1*%
%TO.N,+3.3VA*%
X19576893Y-26944440D03*
%TD*%
%TO.P,C12,2*%
%TO.N,GND*%
X17874142Y-25905871D03*
%TO.P,C12,1*%
%TO.N,+3.3VA*%
X18834142Y-25905871D03*
%TD*%
D11*
%TO.P,J1,1,Pin_1*%
%TO.N,PB9*%
X30000000Y-19000000D03*
D12*
%TO.P,J1,2,Pin_2*%
%TO.N,PB8*%
X30000000Y-21540000D03*
%TO.P,J1,3,Pin_3*%
%TO.N,PB7*%
X30000000Y-24080000D03*
%TO.P,J1,4,Pin_4*%
%TO.N,PB6*%
X30000000Y-26620000D03*
%TO.P,J1,5,Pin_5*%
%TO.N,PB5*%
X30000000Y-29160000D03*
%TO.P,J1,6,Pin_6*%
%TO.N,PB4*%
X30000000Y-31700000D03*
%TO.P,J1,7,Pin_7*%
%TO.N,PB3*%
X30000000Y-34240000D03*
%TO.P,J1,8,Pin_8*%
%TO.N,PA15*%
X30000000Y-36780000D03*
%TO.P,J1,9,Pin_9*%
%TO.N,PA14*%
X30000000Y-39320000D03*
%TO.P,J1,10,Pin_10*%
%TO.N,PA10*%
X30000000Y-41860000D03*
%TD*%
D13*
%TO.P,U1,1,GND*%
%TO.N,GND*%
X13700000Y-55150000D03*
%TO.P,U1,3,VI*%
%TO.N,VBUS*%
X18300000Y-55150000D03*
D14*
%TO.P,U1,2,VO*%
%TO.N,+3.3V*%
X16000000Y-48850000D03*
D13*
X16000000Y-55150000D03*
%TD*%
D15*
%TO.P,Y1,2,2*%
%TO.N,GND*%
X21550000Y-23456912D03*
%TO.P,Y1,4,4*%
X23750000Y-25156912D03*
%TO.P,Y1,1,1*%
%TO.N,/HSE IN*%
X23750000Y-23456912D03*
%TO.P,Y1,3,3*%
%TO.N,/HSE OUT*%
X21550000Y-25156912D03*
%TD*%
D16*
%TO.P,SW1,1,A*%
%TO.N,GND*%
X26000000Y-53500000D03*
%TO.P,SW1,2,B*%
%TO.N,/SW_BOOT0*%
X26000000Y-51500000D03*
%TO.P,SW1,3,C*%
%TO.N,+3.3V*%
X26000000Y-49500000D03*
%TD*%
D17*
%TO.P,R3,1*%
%TO.N,+3.3V*%
X24410000Y-49800000D03*
%TO.P,R3,2*%
%TO.N,/USB_D+*%
X23390000Y-49800000D03*
%TD*%
D18*
%TO.P,R2,1*%
%TO.N,/SW_BOOT0*%
X27900000Y-46260000D03*
%TO.P,R2,2*%
%TO.N,Net-(U2-BOOT0)*%
X27900000Y-45240000D03*
%TD*%
D19*
%TO.P,R1,1*%
%TO.N,GND*%
X13786317Y-59852750D03*
%TO.P,R1,2*%
%TO.N,/PWRLED_K*%
X14806317Y-59852750D03*
%TD*%
D20*
%TO.P,J3,5,GND*%
%TO.N,GND*%
X23300000Y-57837500D03*
%TO.P,J3,1,VBUS*%
%TO.N,VBUS*%
X20700000Y-57837500D03*
%TO.P,J3,2,D-*%
%TO.N,/USB_D-*%
X21350000Y-57837500D03*
%TO.P,J3,3,D+*%
%TO.N,/USB_D+*%
X22000000Y-57837500D03*
%TO.P,J3,4,ID*%
%TO.N,unconnected-(J3-ID-Pad4)*%
X22650000Y-57837500D03*
D21*
%TO.P,J3,6,Shield*%
%TO.N,unconnected-(J3-Shield-Pad6)_4*%
X18500000Y-60537500D03*
D22*
%TO.N,unconnected-(J3-Shield-Pad6)_6*%
X19100000Y-60537500D03*
D23*
%TO.N,unconnected-(J3-Shield-Pad6)_5*%
X19500000Y-57837500D03*
D24*
%TO.N,unconnected-(J3-Shield-Pad6)_3*%
X21000000Y-60537500D03*
%TO.N,unconnected-(J3-Shield-Pad6)_1*%
X23000000Y-60537500D03*
D23*
%TO.N,unconnected-(J3-Shield-Pad6)_2*%
X24500000Y-57837500D03*
D22*
%TO.N,unconnected-(J3-Shield-Pad6)*%
X24900000Y-60537500D03*
D21*
%TO.N,unconnected-(J3-Shield-Pad6)_7*%
X25500000Y-60537500D03*
%TD*%
D11*
%TO.P,J2,1,Pin_1*%
%TO.N,PA3*%
X14000000Y-19420000D03*
D12*
%TO.P,J2,2,Pin_2*%
%TO.N,PA4*%
X14000000Y-21960000D03*
%TO.P,J2,3,Pin_3*%
%TO.N,PA5*%
X14000000Y-24500000D03*
%TO.P,J2,4,Pin_4*%
%TO.N,PA6*%
X14000000Y-27040000D03*
%TO.P,J2,5,Pin_5*%
%TO.N,PA7*%
X14000000Y-29580000D03*
%TO.P,J2,6,Pin_6*%
%TO.N,PB0*%
X14000000Y-32120000D03*
%TO.P,J2,7,Pin_7*%
%TO.N,PB1*%
X14000000Y-34660000D03*
%TO.P,J2,8,Pin_8*%
%TO.N,PB2*%
X14000000Y-37200000D03*
%TO.P,J2,9,Pin_9*%
%TO.N,PB12*%
X14000000Y-39740000D03*
%TO.P,J2,10,Pin_10*%
%TO.N,PB13*%
X14000000Y-42280000D03*
%TD*%
D25*
%TO.P,FB1,1*%
%TO.N,+3.3VA*%
X18312516Y-27902880D03*
%TO.P,FB1,2*%
%TO.N,+3.3V*%
X18312516Y-28542880D03*
%TD*%
D26*
%TO.P,D1,1,K*%
%TO.N,/PWRLED_K*%
X16600000Y-59437500D03*
%TO.P,D1,2,A*%
%TO.N,+3.3V*%
X16600000Y-57562500D03*
%TD*%
D27*
%TO.P,C13,2*%
%TO.N,GND*%
X17500000Y-27826912D03*
%TO.P,C13,1*%
%TO.N,+3.3V*%
X17500000Y-28786912D03*
%TD*%
D28*
%TO.P,C9,1*%
%TO.N,+3.3V*%
X17135936Y-36990191D03*
%TO.P,C9,2*%
%TO.N,GND*%
X16457114Y-36311369D03*
%TD*%
D29*
%TO.P,C8,2*%
%TO.N,GND*%
X26745811Y-28420361D03*
%TO.P,C8,1*%
%TO.N,+3.3V*%
X25785811Y-28420361D03*
%TD*%
D10*
%TO.P,C7,2*%
%TO.N,GND*%
X20520000Y-26556912D03*
%TO.P,C7,1*%
%TO.N,/NRST*%
X21480000Y-26556912D03*
%TD*%
%TO.P,C6,2*%
%TO.N,GND*%
X23759597Y-27033813D03*
%TO.P,C6,1*%
%TO.N,+3.3V*%
X24719597Y-27033813D03*
%TD*%
D30*
%TO.P,C5,1*%
%TO.N,+3.3V*%
X25675000Y-39762471D03*
%TO.P,C5,2*%
%TO.N,GND*%
X24125000Y-39762471D03*
%TD*%
D31*
%TO.P,C4,2*%
%TO.N,GND*%
X20600000Y-50950000D03*
%TO.P,C4,1*%
%TO.N,+3.3V*%
X20600000Y-49050000D03*
%TD*%
D27*
%TO.P,C3,2*%
%TO.N,GND*%
X19750000Y-24026912D03*
%TO.P,C3,1*%
%TO.N,/HSE OUT*%
X19750000Y-24986912D03*
%TD*%
D32*
%TO.P,C2,2*%
%TO.N,GND*%
X25550000Y-24836912D03*
%TO.P,C2,1*%
%TO.N,/HSE IN*%
X25550000Y-23876912D03*
%TD*%
D33*
%TO.P,C1,2*%
%TO.N,GND*%
X20608899Y-53121859D03*
%TO.P,C1,1*%
%TO.N,VBUS*%
X20608899Y-55021859D03*
%TD*%
D34*
%TO.P,U2,47,VSS*%
%TO.N,GND*%
X26160000Y-30556912D03*
D35*
%TO.P,U2,8,VSSA*%
X21250000Y-28646912D03*
D34*
%TO.P,U2,48,VDD*%
%TO.N,+3.3V*%
X26160000Y-30056912D03*
%TO.P,U2,46,PB9*%
%TO.N,PB9*%
X26160000Y-31056912D03*
%TO.P,U2,45,PB8*%
%TO.N,PB8*%
X26160000Y-31556912D03*
%TO.P,U2,44,BOOT0*%
%TO.N,Net-(U2-BOOT0)*%
X26160000Y-32056912D03*
%TO.P,U2,43,PB7*%
%TO.N,PB7*%
X26160000Y-32556912D03*
%TO.P,U2,42,PB6*%
%TO.N,PB6*%
X26160000Y-33056912D03*
%TO.P,U2,41,PB5*%
%TO.N,PB5*%
X26160000Y-33556912D03*
%TO.P,U2,40,PB4*%
%TO.N,PB4*%
X26160000Y-34056912D03*
%TO.P,U2,39,PB3*%
%TO.N,PB3*%
X26160000Y-34556912D03*
%TO.P,U2,38,PA15*%
%TO.N,PA15*%
X26160000Y-35056912D03*
%TO.P,U2,37,PA14*%
%TO.N,PA14*%
X26160000Y-35556912D03*
D35*
%TO.P,U2,36,VDD*%
%TO.N,+3.3V*%
X24750000Y-36966912D03*
%TO.P,U2,35,VSS*%
%TO.N,GND*%
X24250000Y-36966912D03*
%TO.P,U2,34,PA13*%
%TO.N,unconnected-(U2-PA13-Pad34)*%
X23750000Y-36966912D03*
%TO.P,U2,33,PA12*%
%TO.N,/USB_D+*%
X23250000Y-36966912D03*
%TO.P,U2,32,PA11*%
%TO.N,/USB_D-*%
X22750000Y-36966912D03*
%TO.P,U2,31,PA10*%
%TO.N,PA10*%
X22250000Y-36966912D03*
%TO.P,U2,30,PA9*%
%TO.N,unconnected-(U2-PA9-Pad30)*%
X21750000Y-36966912D03*
%TO.P,U2,29,PA8*%
%TO.N,unconnected-(U2-PA8-Pad29)*%
X21250000Y-36966912D03*
%TO.P,U2,28,PB15*%
%TO.N,unconnected-(U2-PB15-Pad28)*%
X20750000Y-36966912D03*
%TO.P,U2,27,PB14*%
%TO.N,unconnected-(U2-PB14-Pad27)*%
X20250000Y-36966912D03*
%TO.P,U2,26,PB13*%
%TO.N,PB13*%
X19750000Y-36966912D03*
%TO.P,U2,25,PB12*%
%TO.N,PB12*%
X19250000Y-36966912D03*
D34*
%TO.P,U2,24,VDD*%
%TO.N,+3.3V*%
X17840000Y-35556912D03*
%TO.P,U2,23,VSS*%
%TO.N,GND*%
X17840000Y-35056912D03*
%TO.P,U2,22,PB11*%
%TO.N,unconnected-(U2-PB11-Pad22)*%
X17840000Y-34556912D03*
%TO.P,U2,21,PB10*%
%TO.N,unconnected-(U2-PB10-Pad21)*%
X17840000Y-34056912D03*
%TO.P,U2,20,PB2*%
%TO.N,PB2*%
X17840000Y-33556912D03*
%TO.P,U2,19,PB1*%
%TO.N,PB1*%
X17840000Y-33056912D03*
%TO.P,U2,18,PB0*%
%TO.N,PB0*%
X17840000Y-32556912D03*
%TO.P,U2,17,PA7*%
%TO.N,PA7*%
X17840000Y-32056912D03*
%TO.P,U2,16,PA6*%
%TO.N,PA6*%
X17840000Y-31556912D03*
%TO.P,U2,15,PA5*%
%TO.N,PA5*%
X17840000Y-31056912D03*
%TO.P,U2,14,PA4*%
%TO.N,PA4*%
X17840000Y-30556912D03*
%TO.P,U2,13,PA3*%
%TO.N,PA3*%
X17840000Y-30056912D03*
D35*
%TO.P,U2,12,PA2*%
%TO.N,unconnected-(U2-PA2-Pad12)*%
X19250000Y-28646912D03*
%TO.P,U2,11,PA1*%
%TO.N,unconnected-(U2-PA1-Pad11)*%
X19750000Y-28646912D03*
%TO.P,U2,10,PA0*%
%TO.N,unconnected-(U2-PA0-Pad10)*%
X20250000Y-28646912D03*
%TO.P,U2,9,VDDA*%
%TO.N,+3.3VA*%
X20750000Y-28646912D03*
%TO.P,U2,7,NRST*%
%TO.N,/NRST*%
X21750000Y-28646912D03*
%TO.P,U2,6,PD1*%
%TO.N,/HSE OUT*%
X22250000Y-28646912D03*
%TO.P,U2,5,PD0*%
%TO.N,/HSE IN*%
X22750000Y-28646912D03*
%TO.P,U2,4,PC15*%
%TO.N,unconnected-(U2-PC15-Pad4)*%
X23250000Y-28646912D03*
%TO.P,U2,3,PC14*%
%TO.N,unconnected-(U2-PC14-Pad3)*%
X23750000Y-28646912D03*
%TO.P,U2,2,PC13*%
%TO.N,/PC13*%
X24250000Y-28646912D03*
%TO.P,U2,1,VBAT*%
%TO.N,+3.3V*%
X24750000Y-28646912D03*
%TD*%
D36*
%TO.N,PB13*%
X17735936Y-40500000D03*
%TO.N,PB12*%
X17735936Y-38500000D03*
%TO.N,GND*%
X21200000Y-29800000D03*
X19100000Y-34700000D03*
X24100000Y-40600000D03*
%TO.N,PB5*%
X27603183Y-33303183D03*
%TO.N,GND*%
X20600000Y-52050000D03*
X26000000Y-59000000D03*
X24000000Y-56500000D03*
X24500000Y-30700000D03*
%TO.N,PA10*%
X27150000Y-41500000D03*
X23100000Y-35700000D03*
%TO.N,GND*%
X26500000Y-29406912D03*
X17950000Y-27206912D03*
X20200000Y-23506912D03*
X24250000Y-26306912D03*
X26000000Y-56750000D03*
X24500000Y-56000000D03*
X14500000Y-57500000D03*
X13750000Y-57500000D03*
X14750000Y-56750000D03*
X14000000Y-56750000D03*
X13250000Y-56750000D03*
%TO.N,Net-(U2-BOOT0)*%
X26000000Y-36306912D03*
X24920002Y-34800000D03*
%TD*%
D37*
%TO.N,PB13*%
X19750000Y-38450000D02*
X19750000Y-36966912D01*
X17735936Y-40500000D02*
X17735936Y-40464064D01*
X17735936Y-40464064D02*
X19750000Y-38450000D01*
%TO.N,PB12*%
X17735936Y-38480976D02*
X17735936Y-38500000D01*
X19250000Y-36966912D02*
X17735936Y-38480976D01*
%TO.N,+3.3V*%
X17135936Y-47714064D02*
X16000000Y-48850000D01*
X17135936Y-36990191D02*
X17135936Y-47714064D01*
X24750000Y-36050000D02*
X24750000Y-36966912D01*
X21435368Y-32735368D02*
X20356912Y-33813824D01*
X21435368Y-32735368D02*
X24750000Y-36050000D01*
%TO.N,Net-(U2-BOOT0)*%
X25386176Y-32056912D02*
X26160000Y-32056912D01*
X24920002Y-34800000D02*
X24920002Y-32523086D01*
X24920002Y-32523086D02*
X25386176Y-32056912D01*
%TO.N,PA10*%
X23100000Y-35700000D02*
X22743088Y-35700000D01*
X22250000Y-36193088D02*
X22743088Y-35700000D01*
X22250000Y-36966912D02*
X22250000Y-36193088D01*
%TO.N,/USB_D+*%
X23225000Y-38101913D02*
X23225000Y-55785500D01*
%TO.N,+3.3V*%
X24710000Y-49500000D02*
X24410000Y-49800000D01*
X26000000Y-49500000D02*
X24710000Y-49500000D01*
X25700000Y-49800000D02*
X26000000Y-49500000D01*
%TO.N,GND*%
X21250000Y-29750000D02*
X21200000Y-29800000D01*
X21250000Y-28646912D02*
X21250000Y-29750000D01*
X20520000Y-26556912D02*
X21250000Y-27286912D01*
X21250000Y-27286912D02*
X21250000Y-28646912D01*
%TO.N,/NRST*%
X21750000Y-28646912D02*
X21750000Y-26826912D01*
X21750000Y-26826912D02*
X21480000Y-26556912D01*
X21580000Y-26556912D02*
X21680000Y-26556912D01*
%TO.N,GND*%
X24100000Y-39787471D02*
X24125000Y-39762471D01*
X24100000Y-40600000D02*
X24100000Y-39787471D01*
%TO.N,+3.3V*%
X20356912Y-34293031D02*
X20356912Y-33813824D01*
X19093031Y-35556912D02*
X20356912Y-34293031D01*
X17840000Y-35556912D02*
X19093031Y-35556912D01*
%TO.N,GND*%
X18743088Y-35056912D02*
X17840000Y-35056912D01*
X19100000Y-34700000D02*
X18743088Y-35056912D01*
%TO.N,PB4*%
X30000000Y-31756309D02*
X27699397Y-34056912D01*
X30000000Y-31700000D02*
X30000000Y-31756309D01*
X27699397Y-34056912D02*
X26160000Y-34056912D01*
%TO.N,PB5*%
X27349454Y-33556912D02*
X27603183Y-33303183D01*
X26160000Y-33556912D02*
X27349454Y-33556912D01*
%TO.N,GND*%
X26160000Y-30556912D02*
X24643088Y-30556912D01*
X24643088Y-30556912D02*
X24500000Y-30700000D01*
X26745811Y-28420361D02*
X26745811Y-29161101D01*
X26745811Y-29161101D02*
X26500000Y-29406912D01*
X20600000Y-50950000D02*
X20600000Y-52050000D01*
X20600000Y-52050000D02*
X20600000Y-53112960D01*
X20200000Y-23506912D02*
X21500000Y-23506912D01*
X19750000Y-23956912D02*
X20200000Y-23506912D01*
X17500000Y-27656912D02*
X17950000Y-27206912D01*
X18616893Y-26944440D02*
X18212472Y-26944440D01*
X18212472Y-26944440D02*
X17950000Y-27206912D01*
X23750000Y-25806912D02*
X24250000Y-26306912D01*
X24250000Y-26306912D02*
X23759597Y-26797315D01*
X13786317Y-59852750D02*
X13786317Y-57536317D01*
X13786317Y-57536317D02*
X13750000Y-57500000D01*
X25500000Y-59000000D02*
X26000000Y-59000000D01*
X23300000Y-57200000D02*
X24000000Y-56500000D01*
X23987500Y-59000000D02*
X25500000Y-59000000D01*
X20837040Y-53350000D02*
X20608899Y-53121859D01*
X20600000Y-53112960D02*
X20608899Y-53121859D01*
X21200632Y-28597544D02*
X21250000Y-28646912D01*
X21500000Y-23506912D02*
X21550000Y-23456912D01*
X19750000Y-24026912D02*
X19750000Y-23956912D01*
X17500000Y-27826912D02*
X17500000Y-27656912D01*
X17874142Y-26201689D02*
X18616893Y-26944440D01*
X23750000Y-25156912D02*
X23750000Y-25806912D01*
X23759597Y-26797315D02*
X23759597Y-27033813D01*
X23300000Y-58312500D02*
X23987500Y-59000000D01*
X17874142Y-25905871D02*
X17874142Y-26201689D01*
X24070000Y-24836912D02*
X23750000Y-25156912D01*
X25550000Y-24836912D02*
X24070000Y-24836912D01*
X23300000Y-57837500D02*
X23300000Y-58312500D01*
%TO.N,PB5*%
X30000000Y-29160000D02*
X30000000Y-29797690D01*
%TO.N,PB6*%
X27049924Y-33007912D02*
X25900000Y-33007912D01*
X28529811Y-31528025D02*
X27049924Y-33007912D01*
X28529811Y-28090189D02*
X28529811Y-31528025D01*
X30000000Y-26620000D02*
X28529811Y-28090189D01*
%TO.N,PB7*%
X28128811Y-31361925D02*
X26933824Y-32556912D01*
X28128811Y-25951189D02*
X28128811Y-31361925D01*
X26933824Y-32556912D02*
X26160000Y-32556912D01*
X30000000Y-24080000D02*
X28128811Y-25951189D01*
%TO.N,PB8*%
X27000924Y-31556912D02*
X26160000Y-31556912D01*
X27727811Y-23812189D02*
X27727811Y-30830025D01*
X30000000Y-21540000D02*
X27727811Y-23812189D01*
X27727811Y-30830025D02*
X27000924Y-31556912D01*
%TO.N,PB9*%
X30000000Y-19426811D02*
X27326811Y-22100000D01*
X30000000Y-19000000D02*
X30000000Y-19426811D01*
X27326811Y-30663925D02*
X27326811Y-22100000D01*
X26933824Y-31056912D02*
X27326811Y-30663925D01*
X26160000Y-31056912D02*
X26933824Y-31056912D01*
%TO.N,+3.3V*%
X25785811Y-28420361D02*
X25785811Y-29771101D01*
X25785811Y-29771101D02*
X25500000Y-30056912D01*
X25500000Y-30056912D02*
X24113824Y-30056912D01*
%TO.N,PB9*%
X29500000Y-19000000D02*
X30000000Y-19000000D01*
%TO.N,PB3*%
X29683088Y-34556912D02*
X30000000Y-34240000D01*
X26160000Y-34556912D02*
X29683088Y-34556912D01*
%TO.N,PA15*%
X26160000Y-35056912D02*
X28276912Y-35056912D01*
X28276912Y-35056912D02*
X30000000Y-36780000D01*
%TO.N,PA14*%
X29923088Y-39320000D02*
X30000000Y-39320000D01*
X26160000Y-35556912D02*
X29923088Y-39320000D01*
%TO.N,PA10*%
X27510000Y-41860000D02*
X30000000Y-41860000D01*
X27150000Y-41500000D02*
X27510000Y-41860000D01*
%TO.N,+3.3V*%
X16000000Y-56962500D02*
X16600000Y-57562500D01*
X16000000Y-55150000D02*
X16000000Y-56962500D01*
%TO.N,Net-(U2-BOOT0)*%
X26550000Y-43890000D02*
X27900000Y-45240000D01*
X26550000Y-36856912D02*
X26550000Y-43890000D01*
X26000000Y-36306912D02*
X26550000Y-36856912D01*
%TO.N,PB2*%
X14000000Y-36623088D02*
X14000000Y-37200000D01*
X17066176Y-33556912D02*
X14000000Y-36623088D01*
X17840000Y-33556912D02*
X17066176Y-33556912D01*
%TO.N,PB1*%
X15603088Y-33056912D02*
X17840000Y-33056912D01*
X14000000Y-34660000D02*
X15603088Y-33056912D01*
%TO.N,PB0*%
X14436912Y-32556912D02*
X14000000Y-32120000D01*
X17840000Y-32556912D02*
X14436912Y-32556912D01*
%TO.N,PA7*%
X16476912Y-32056912D02*
X17840000Y-32056912D01*
X14000000Y-29580000D02*
X16476912Y-32056912D01*
%TO.N,PA6*%
X16766876Y-31556912D02*
X17840000Y-31556912D01*
X15596000Y-28636000D02*
X15596000Y-30386036D01*
X15596000Y-30386036D02*
X16766876Y-31556912D01*
X14000000Y-27040000D02*
X15596000Y-28636000D01*
%TO.N,PA5*%
X15997000Y-30219936D02*
X16833976Y-31056912D01*
X15997000Y-26497000D02*
X15997000Y-30219936D01*
X14000000Y-24500000D02*
X15997000Y-26497000D01*
X16833976Y-31056912D02*
X17840000Y-31056912D01*
%TO.N,PA4*%
X16901076Y-30556912D02*
X17840000Y-30556912D01*
X16398000Y-30053836D02*
X16901076Y-30556912D01*
X16398000Y-24358000D02*
X16398000Y-30053836D01*
X14000000Y-21960000D02*
X16398000Y-24358000D01*
%TO.N,PA3*%
X16799000Y-29887736D02*
X16968176Y-30056912D01*
X16799000Y-27501000D02*
X16799000Y-29887736D01*
X17000000Y-27300000D02*
X16799000Y-27501000D01*
X17000000Y-22420000D02*
X17000000Y-27300000D01*
X16968176Y-30056912D02*
X17840000Y-30056912D01*
X14000000Y-19420000D02*
X17000000Y-22420000D01*
%TO.N,PB1*%
X14000000Y-34660000D02*
X14000000Y-34623088D01*
%TO.N,+3.3V*%
X26000000Y-40087471D02*
X25675000Y-39762471D01*
X26000000Y-49500000D02*
X26000000Y-40087471D01*
%TO.N,/USB_D-*%
X21499000Y-56875132D02*
X21499000Y-57688500D01*
X22775000Y-38101913D02*
X22775000Y-55599132D01*
X22750000Y-36966912D02*
X22750000Y-38076913D01*
%TO.N,/USB_D+*%
X22149000Y-56861500D02*
X22149000Y-57674897D01*
%TO.N,/USB_D-*%
X22775000Y-55599132D02*
X21499000Y-56875132D01*
X22750000Y-38076913D02*
X22775000Y-38101913D01*
%TO.N,/USB_D+*%
X23250000Y-36966912D02*
X23250000Y-38076913D01*
X23225000Y-55785500D02*
X22149000Y-56861500D01*
X23250000Y-38076913D02*
X23225000Y-38101913D01*
%TO.N,+3.3V*%
X25675000Y-39145000D02*
X25030000Y-38500000D01*
X25675000Y-39762471D02*
X25675000Y-39145000D01*
X17840000Y-36286127D02*
X17135936Y-36990191D01*
X17840000Y-35556912D02*
X17840000Y-36286127D01*
%TO.N,GND*%
X17066176Y-35056912D02*
X16457114Y-35665974D01*
X16457114Y-35665974D02*
X16457114Y-36311369D01*
X17840000Y-35056912D02*
X17066176Y-35056912D01*
X24070000Y-39424442D02*
X23731971Y-39762471D01*
X24070000Y-38500000D02*
X24070000Y-39424442D01*
%TO.N,+3.3V*%
X24750000Y-38220000D02*
X25030000Y-38500000D01*
X24750000Y-36966912D02*
X24750000Y-38220000D01*
%TO.N,GND*%
X24250000Y-38320000D02*
X24070000Y-38500000D01*
X24250000Y-36966912D02*
X24250000Y-38320000D01*
%TO.N,+3.3V*%
X18068484Y-28786912D02*
X18312516Y-28542880D01*
X17500000Y-28786912D02*
X18068484Y-28786912D01*
%TO.N,+3.3VA*%
X19576893Y-26648622D02*
X18834142Y-25905871D01*
X19576893Y-26944440D02*
X19576893Y-26648622D01*
X18618453Y-27902880D02*
X19576893Y-26944440D01*
X18312516Y-27902880D02*
X18618453Y-27902880D01*
%TO.N,+3.3V*%
X18312516Y-29019428D02*
X20356912Y-31063824D01*
X18312516Y-28542880D02*
X18312516Y-29019428D01*
X20356912Y-31063824D02*
X20356912Y-33813824D01*
%TO.N,+3.3VA*%
X19856892Y-26944440D02*
X20750000Y-27837548D01*
X20750000Y-27837548D02*
X20750000Y-28646912D01*
X19576893Y-26944440D02*
X19856892Y-26944440D01*
%TO.N,/PWRLED_K*%
X16184750Y-59852750D02*
X16600000Y-59437500D01*
X14806317Y-59852750D02*
X16184750Y-59852750D01*
%TO.N,VBUS*%
X18428141Y-55021859D02*
X18300000Y-55150000D01*
X20608899Y-55021859D02*
X18428141Y-55021859D01*
%TO.N,/HSE OUT*%
X19920000Y-25156912D02*
X19750000Y-24986912D01*
X21550000Y-25156912D02*
X19920000Y-25156912D01*
%TO.N,/HSE IN*%
X24170000Y-23876912D02*
X23750000Y-23456912D01*
X25550000Y-23876912D02*
X24170000Y-23876912D01*
%TO.N,/HSE OUT*%
X22250000Y-25856912D02*
X22250000Y-28646912D01*
X21550000Y-25156912D02*
X22250000Y-25856912D01*
%TO.N,/HSE IN*%
X22750000Y-24356912D02*
X22750000Y-28646912D01*
X23650000Y-23456912D02*
X22750000Y-24356912D01*
X23750000Y-23456912D02*
X23650000Y-23456912D01*
%TO.N,+3.3V*%
X24719597Y-27033813D02*
X24719597Y-28616509D01*
X24719597Y-28616509D02*
X24750000Y-28646912D01*
X24750000Y-29420736D02*
X24113824Y-30056912D01*
X24750000Y-28646912D02*
X24750000Y-29420736D01*
X24113824Y-30056912D02*
X21435368Y-32735368D01*
X26160000Y-30056912D02*
X25500000Y-30056912D01*
%TO.N,/SW_BOOT0*%
X28000000Y-49500000D02*
X26000000Y-51500000D01*
X28000000Y-46510000D02*
X28000000Y-49500000D01*
%TO.N,Net-(U2-BOOT0)*%
X26010000Y-36296912D02*
X26000000Y-36306912D01*
%TO.N,VBUS*%
X20700000Y-57550000D02*
X20700000Y-57837500D01*
X18300000Y-55150000D02*
X20700000Y-57550000D01*
%TO.N,/USB_D+*%
X22000000Y-57823897D02*
X22000000Y-57837500D01*
X22149000Y-57674897D02*
X22000000Y-57823897D01*
%TO.N,/USB_D-*%
X21499000Y-57688500D02*
X21350000Y-57837500D01*
%TD*%
%TA.AperFunction,Conductor*%
%TO.N,GND*%
G36*
X14240403Y-54019685D02*
G01*
X14284273Y-54068546D01*
X14488316Y-54476632D01*
X14501262Y-54526094D01*
X14575354Y-56057540D01*
X14575355Y-56057541D01*
X15363838Y-56857982D01*
X15375326Y-56879401D01*
X15390429Y-56898447D01*
X15393218Y-56912763D01*
X15396860Y-56919554D01*
X15398889Y-56932713D01*
X15399499Y-56938838D01*
X15399499Y-57041557D01*
X15415777Y-57102309D01*
X15416779Y-57112363D01*
X15412101Y-57137170D01*
X15411501Y-57162407D01*
X15411099Y-57163643D01*
X15409913Y-57167222D01*
X15399500Y-57269144D01*
X15399500Y-57549138D01*
X15379815Y-57616177D01*
X15363181Y-57636819D01*
X15036319Y-57963681D01*
X14974996Y-57997166D01*
X14948638Y-58000000D01*
X13576636Y-58000000D01*
X13509597Y-57980315D01*
X13465727Y-57931454D01*
X13318410Y-57636819D01*
X13308089Y-57616177D01*
X13081822Y-57163643D01*
X12966357Y-56932713D01*
X12956382Y-56912763D01*
X12939701Y-56879401D01*
X12763091Y-56526182D01*
X12750000Y-56470728D01*
X12750000Y-54529272D01*
X12763091Y-54473818D01*
X12965727Y-54068546D01*
X13013314Y-54017387D01*
X13076636Y-54000000D01*
X14173364Y-54000000D01*
X14240403Y-54019685D01*
G37*
%TD.AperFunction*%
%TD*%
%TA.AperFunction,Conductor*%
%TO.N,+3.3V*%
G36*
X17146851Y-47502592D02*
G01*
X21251229Y-48355450D01*
X21312860Y-48388361D01*
X21346915Y-48449369D01*
X21350000Y-48476856D01*
X21350000Y-49597460D01*
X21330315Y-49664499D01*
X21277511Y-49710254D01*
X21249284Y-49719254D01*
X20015719Y-49955082D01*
X20015718Y-49955083D01*
X20010405Y-49956098D01*
X19972203Y-49960001D01*
X19947948Y-49968038D01*
X19939946Y-49969568D01*
X19939943Y-49969567D01*
X17949999Y-50349999D01*
X17949999Y-50350000D01*
X17368419Y-53808872D01*
X17337891Y-53871719D01*
X17323825Y-53884957D01*
X17302282Y-53902273D01*
X17302275Y-53902280D01*
X17182969Y-54050704D01*
X17182967Y-54050707D01*
X17098360Y-54221302D01*
X17052400Y-54406107D01*
X17049500Y-54448879D01*
X17049500Y-55695243D01*
X17047784Y-55715804D01*
X17006572Y-55960910D01*
X16976043Y-56023757D01*
X16971969Y-56028030D01*
X16536319Y-56463681D01*
X16474996Y-56497166D01*
X16448638Y-56500000D01*
X15772679Y-56500000D01*
X15705640Y-56480315D01*
X15684340Y-56463019D01*
X15185559Y-55956673D01*
X15104161Y-55874041D01*
X15071140Y-55812468D01*
X15068647Y-55793025D01*
X15011851Y-54619062D01*
X15006172Y-54501674D01*
X15006171Y-54501667D01*
X15001433Y-54470768D01*
X15000000Y-54451973D01*
X15000000Y-53749999D01*
X13755644Y-49768060D01*
X13750000Y-49731074D01*
X13750000Y-48301362D01*
X13769685Y-48234323D01*
X13786319Y-48213681D01*
X14463681Y-47536319D01*
X14525004Y-47502834D01*
X14551362Y-47500000D01*
X17121625Y-47500000D01*
X17146851Y-47502592D01*
G37*
%TD.AperFunction*%
%TD*%
%TA.AperFunction,Conductor*%
%TO.N,GND*%
G36*
X23481952Y-58574153D02*
G01*
X23510080Y-58580272D01*
X23515757Y-58585263D01*
X23520988Y-58586982D01*
X23529160Y-58597045D01*
X23550971Y-58616219D01*
X23565236Y-58635852D01*
X23565243Y-58635861D01*
X23701641Y-58772259D01*
X23706354Y-58775683D01*
X23749019Y-58831014D01*
X23754997Y-58900627D01*
X23722390Y-58962422D01*
X23661551Y-58996778D01*
X23633467Y-59000000D01*
X23357985Y-59000000D01*
X23290946Y-58980315D01*
X23245191Y-58927511D01*
X23235247Y-58858353D01*
X23246892Y-58820916D01*
X23251928Y-58810759D01*
X23293796Y-58754831D01*
X23336712Y-58639766D01*
X23339561Y-58634021D01*
X23359095Y-58612879D01*
X23376343Y-58589839D01*
X23382509Y-58587538D01*
X23386977Y-58582704D01*
X23414840Y-58575479D01*
X23441807Y-58565421D01*
X23448238Y-58566820D01*
X23454610Y-58565168D01*
X23481952Y-58574153D01*
G37*
%TD.AperFunction*%
%TA.AperFunction,Conductor*%
G36*
X26515677Y-52519685D02*
G01*
X26536319Y-52536319D01*
X26963681Y-52963681D01*
X26997166Y-53025004D01*
X27000000Y-53051362D01*
X27000000Y-53987722D01*
X26997592Y-54012040D01*
X26019936Y-58900318D01*
X25987486Y-58962196D01*
X25926734Y-58996706D01*
X25898344Y-59000000D01*
X25366533Y-59000000D01*
X25299494Y-58980315D01*
X25253739Y-58927511D01*
X25243795Y-58858353D01*
X25272820Y-58794797D01*
X25293646Y-58775683D01*
X25298359Y-58772259D01*
X25434759Y-58635859D01*
X25548141Y-58479802D01*
X25635715Y-58307929D01*
X25695324Y-58124472D01*
X25725500Y-57933949D01*
X25725500Y-57741051D01*
X25695324Y-57550528D01*
X25635715Y-57367071D01*
X25548141Y-57195198D01*
X25434759Y-57039141D01*
X25298359Y-56902741D01*
X25142302Y-56789359D01*
X24970429Y-56701785D01*
X24786972Y-56642176D01*
X24786970Y-56642175D01*
X24786969Y-56642175D01*
X24640614Y-56618995D01*
X24596449Y-56612000D01*
X24403551Y-56612000D01*
X24367697Y-56617678D01*
X24213030Y-56642175D01*
X24029568Y-56701786D01*
X23857697Y-56789359D01*
X23768661Y-56854047D01*
X23701641Y-56902741D01*
X23701639Y-56902743D01*
X23701638Y-56902743D01*
X23565243Y-57039138D01*
X23550970Y-57058783D01*
X23549428Y-57059971D01*
X23548719Y-57061784D01*
X23521899Y-57081198D01*
X23495639Y-57101447D01*
X23493697Y-57101613D01*
X23492122Y-57102754D01*
X23459043Y-57104588D01*
X23426025Y-57107423D01*
X23424304Y-57106515D01*
X23422360Y-57106623D01*
X23393530Y-57090276D01*
X23364231Y-57074816D01*
X23362736Y-57072816D01*
X23361581Y-57072161D01*
X23357947Y-57066406D01*
X23340885Y-57043571D01*
X23337221Y-57036598D01*
X23293796Y-56920169D01*
X23234247Y-56840622D01*
X23229658Y-56831888D01*
X23224643Y-56806921D01*
X23215743Y-56783059D01*
X23217878Y-56773239D01*
X23215900Y-56763386D01*
X23225181Y-56739668D01*
X23230594Y-56714786D01*
X23241089Y-56699016D01*
X23241362Y-56698321D01*
X23241730Y-56698054D01*
X23242590Y-56696762D01*
X23556787Y-56304015D01*
X23565895Y-56293839D01*
X23705520Y-56154216D01*
X23775754Y-56032566D01*
X23786296Y-56017128D01*
X25000000Y-54500000D01*
X25000000Y-53051362D01*
X25019685Y-52984323D01*
X25036319Y-52963681D01*
X25463681Y-52536319D01*
X25525004Y-52502834D01*
X25551362Y-52500000D01*
X26448638Y-52500000D01*
X26515677Y-52519685D01*
G37*
%TD.AperFunction*%
%TD*%
M02*
