%TF.GenerationSoftware,KiCad,Pcbnew,9.0.0*%
%TF.CreationDate,2025-06-28T10:43:13-07:00*%
%TF.ProjectId,STM 32 devboard,53544d20-3332-4206-9465-76626f617264,rev?*%
%TF.SameCoordinates,Original*%
%TF.FileFunction,Copper,L2,Bot*%
%TF.FilePolarity,Positive*%
%FSLAX46Y46*%
G04 Gerber Fmt 4.6, Leading zero omitted, Abs format (unit mm)*
G04 Created by KiCad (PCBNEW 9.0.0) date 2025-06-28 10:43:13*
%MOMM*%
%LPD*%
G01*
G04 APERTURE LIST*
%TA.AperFunction,ComponentPad*%
%ADD10R,1.700000X1.700000*%
%TD*%
%TA.AperFunction,ComponentPad*%
%ADD11O,1.700000X1.700000*%
%TD*%
%TA.AperFunction,HeatsinkPad*%
%ADD12O,1.200000X1.900000*%
%TD*%
%TA.AperFunction,HeatsinkPad*%
%ADD13C,1.450000*%
%TD*%
%TA.AperFunction,ViaPad*%
%ADD14C,0.600000*%
%TD*%
%TA.AperFunction,Conductor*%
%ADD15C,0.200000*%
%TD*%
G04 APERTURE END LIST*
D10*
%TO.P,J1,1,Pin_1*%
%TO.N,PB9*%
X30000000Y-19000000D03*
D11*
%TO.P,J1,2,Pin_2*%
%TO.N,PB8*%
X30000000Y-21540000D03*
%TO.P,J1,3,Pin_3*%
%TO.N,PB7*%
X30000000Y-24080000D03*
%TO.P,J1,4,Pin_4*%
%TO.N,PB6*%
X30000000Y-26620000D03*
%TO.P,J1,5,Pin_5*%
%TO.N,PB5*%
X30000000Y-29160000D03*
%TO.P,J1,6,Pin_6*%
%TO.N,PB4*%
X30000000Y-31700000D03*
%TO.P,J1,7,Pin_7*%
%TO.N,PB3*%
X30000000Y-34240000D03*
%TO.P,J1,8,Pin_8*%
%TO.N,PA15*%
X30000000Y-36780000D03*
%TO.P,J1,9,Pin_9*%
%TO.N,PA14*%
X30000000Y-39320000D03*
%TO.P,J1,10,Pin_10*%
%TO.N,PA10*%
X30000000Y-41860000D03*
%TD*%
D12*
%TO.P,J3,6,Shield*%
%TO.N,unconnected-(J3-Shield-Pad6)_4*%
X18500000Y-60537500D03*
D13*
%TO.N,unconnected-(J3-Shield-Pad6)_5*%
X19500000Y-57837500D03*
%TO.N,unconnected-(J3-Shield-Pad6)_2*%
X24500000Y-57837500D03*
D12*
%TO.N,unconnected-(J3-Shield-Pad6)_7*%
X25500000Y-60537500D03*
%TD*%
D10*
%TO.P,J2,1,Pin_1*%
%TO.N,PA3*%
X14000000Y-19420000D03*
D11*
%TO.P,J2,2,Pin_2*%
%TO.N,PA4*%
X14000000Y-21960000D03*
%TO.P,J2,3,Pin_3*%
%TO.N,PA5*%
X14000000Y-24500000D03*
%TO.P,J2,4,Pin_4*%
%TO.N,PA6*%
X14000000Y-27040000D03*
%TO.P,J2,5,Pin_5*%
%TO.N,PA7*%
X14000000Y-29580000D03*
%TO.P,J2,6,Pin_6*%
%TO.N,PB0*%
X14000000Y-32120000D03*
%TO.P,J2,7,Pin_7*%
%TO.N,PB1*%
X14000000Y-34660000D03*
%TO.P,J2,8,Pin_8*%
%TO.N,PB2*%
X14000000Y-37200000D03*
%TO.P,J2,9,Pin_9*%
%TO.N,PB12*%
X14000000Y-39740000D03*
%TO.P,J2,10,Pin_10*%
%TO.N,PB13*%
X14000000Y-42280000D03*
%TD*%
D14*
%TO.N,PB13*%
X17735936Y-40500000D03*
%TO.N,PB12*%
X17735936Y-38500000D03*
%TO.N,GND*%
X21200000Y-29800000D03*
X19100000Y-34700000D03*
X24100000Y-40600000D03*
%TO.N,PB5*%
X27603183Y-33303183D03*
%TO.N,GND*%
X20600000Y-52050000D03*
X26000000Y-59000000D03*
X24000000Y-56500000D03*
X24500000Y-30700000D03*
%TO.N,PA10*%
X27150000Y-41500000D03*
X23100000Y-35700000D03*
%TO.N,GND*%
X26500000Y-29406912D03*
X17950000Y-27206912D03*
X20200000Y-23506912D03*
X24250000Y-26306912D03*
X26000000Y-56750000D03*
X24500000Y-56000000D03*
X14500000Y-57500000D03*
X13750000Y-57500000D03*
X14750000Y-56750000D03*
X14000000Y-56750000D03*
X13250000Y-56750000D03*
%TO.N,Net-(U2-BOOT0)*%
X26000000Y-36306912D03*
X24920002Y-34800000D03*
%TD*%
D15*
%TO.N,PB13*%
X17700000Y-40500000D02*
X15920000Y-42280000D01*
X17735936Y-40500000D02*
X17700000Y-40500000D01*
X15920000Y-42280000D02*
X14000000Y-42280000D01*
%TO.N,PB12*%
X14260000Y-40000000D02*
X14000000Y-39740000D01*
X16235936Y-40000000D02*
X14260000Y-40000000D01*
X17735936Y-38500000D02*
X16235936Y-40000000D01*
%TO.N,Net-(U2-BOOT0)*%
X24920002Y-34800000D02*
X25310763Y-35190761D01*
X25310763Y-35617675D02*
X26000000Y-36306912D01*
X25310763Y-35190761D02*
X25310763Y-35617675D01*
%TO.N,PA10*%
X27150000Y-39017094D02*
X27150000Y-41500000D01*
X23100000Y-35700000D02*
X23832906Y-35700000D01*
X23832906Y-35700000D02*
X27150000Y-39017094D01*
%TO.N,PB5*%
X27603183Y-31556817D02*
X30000000Y-29160000D01*
X27603183Y-33303183D02*
X27603183Y-31556817D01*
%TD*%
%TA.AperFunction,Conductor*%
%TO.N,GND*%
G36*
X31442539Y-12520185D02*
G01*
X31488294Y-12572989D01*
X31499500Y-12624500D01*
X31499500Y-17809897D01*
X31479815Y-17876936D01*
X31427011Y-17922691D01*
X31357853Y-17932635D01*
X31294297Y-17903610D01*
X31276234Y-17884208D01*
X31207547Y-17792455D01*
X31207544Y-17792452D01*
X31092335Y-17706206D01*
X31092328Y-17706202D01*
X30957482Y-17655908D01*
X30957483Y-17655908D01*
X30897883Y-17649501D01*
X30897881Y-17649500D01*
X30897873Y-17649500D01*
X30897864Y-17649500D01*
X29102129Y-17649500D01*
X29102123Y-17649501D01*
X29042516Y-17655908D01*
X28907671Y-17706202D01*
X28907664Y-17706206D01*
X28792455Y-17792452D01*
X28792452Y-17792455D01*
X28706206Y-17907664D01*
X28706202Y-17907671D01*
X28655908Y-18042517D01*
X28649501Y-18102116D01*
X28649500Y-18102135D01*
X28649500Y-19897870D01*
X28649501Y-19897876D01*
X28655908Y-19957483D01*
X28706202Y-20092328D01*
X28706206Y-20092335D01*
X28792452Y-20207544D01*
X28792455Y-20207547D01*
X28907664Y-20293793D01*
X28907671Y-20293797D01*
X29039082Y-20342810D01*
X29095016Y-20384681D01*
X29119433Y-20450145D01*
X29104582Y-20518418D01*
X29083431Y-20546673D01*
X28969889Y-20660215D01*
X28844951Y-20832179D01*
X28748444Y-21021585D01*
X28748443Y-21021587D01*
X28748443Y-21021588D01*
X28729394Y-21080215D01*
X28682753Y-21223760D01*
X28651391Y-21421773D01*
X28649500Y-21433713D01*
X28649500Y-21646287D01*
X28682754Y-21856243D01*
X28734075Y-22014193D01*
X28748444Y-22058414D01*
X28844951Y-22247820D01*
X28969890Y-22419786D01*
X29120213Y-22570109D01*
X29292182Y-22695050D01*
X29300946Y-22699516D01*
X29351742Y-22747491D01*
X29368536Y-22815312D01*
X29345998Y-22881447D01*
X29300946Y-22920484D01*
X29292182Y-22924949D01*
X29120213Y-23049890D01*
X28969890Y-23200213D01*
X28844951Y-23372179D01*
X28748444Y-23561585D01*
X28748443Y-23561587D01*
X28748443Y-23561588D01*
X28724432Y-23635486D01*
X28682753Y-23763760D01*
X28651391Y-23961773D01*
X28649500Y-23973713D01*
X28649500Y-24186287D01*
X28682754Y-24396243D01*
X28734075Y-24554193D01*
X28748444Y-24598414D01*
X28844951Y-24787820D01*
X28969890Y-24959786D01*
X29120213Y-25110109D01*
X29292182Y-25235050D01*
X29300946Y-25239516D01*
X29351742Y-25287491D01*
X29368536Y-25355312D01*
X29345998Y-25421447D01*
X29300946Y-25460484D01*
X29292182Y-25464949D01*
X29120213Y-25589890D01*
X28969890Y-25740213D01*
X28844951Y-25912179D01*
X28748444Y-26101585D01*
X28748443Y-26101587D01*
X28748443Y-26101588D01*
X28724432Y-26175486D01*
X28682753Y-26303760D01*
X28651391Y-26501773D01*
X28649500Y-26513713D01*
X28649500Y-26726287D01*
X28682754Y-26936243D01*
X28734075Y-27094193D01*
X28748444Y-27138414D01*
X28844951Y-27327820D01*
X28969890Y-27499786D01*
X29120213Y-27650109D01*
X29292182Y-27775050D01*
X29300946Y-27779516D01*
X29351742Y-27827491D01*
X29368536Y-27895312D01*
X29345998Y-27961447D01*
X29300946Y-28000484D01*
X29292182Y-28004949D01*
X29120213Y-28129890D01*
X28969890Y-28280213D01*
X28844951Y-28452179D01*
X28748444Y-28641585D01*
X28748443Y-28641587D01*
X28748443Y-28641588D01*
X28724432Y-28715486D01*
X28682753Y-28843760D01*
X28649500Y-29053713D01*
X28649500Y-29266286D01*
X28682754Y-29476244D01*
X28682754Y-29476247D01*
X28696491Y-29518523D01*
X28698486Y-29588364D01*
X28666241Y-29644522D01*
X27234469Y-31076295D01*
X27122664Y-31188099D01*
X27122663Y-31188101D01*
X27072743Y-31274567D01*
X27072544Y-31274911D01*
X27072542Y-31274913D01*
X27043608Y-31325026D01*
X27043607Y-31325027D01*
X27043606Y-31325032D01*
X27002682Y-31477760D01*
X27002682Y-31477762D01*
X27002682Y-31645863D01*
X27002683Y-31645876D01*
X27002683Y-32723417D01*
X26982998Y-32790456D01*
X26981785Y-32792308D01*
X26893792Y-32923997D01*
X26893785Y-32924010D01*
X26833447Y-33069681D01*
X26833444Y-33069693D01*
X26802683Y-33224336D01*
X26802683Y-33382029D01*
X26833444Y-33536672D01*
X26833447Y-33536684D01*
X26893785Y-33682355D01*
X26893792Y-33682368D01*
X26981393Y-33813471D01*
X26981396Y-33813475D01*
X27092890Y-33924969D01*
X27092894Y-33924972D01*
X27223997Y-34012573D01*
X27224010Y-34012580D01*
X27369681Y-34072918D01*
X27369686Y-34072920D01*
X27524336Y-34103682D01*
X27524339Y-34103683D01*
X27524341Y-34103683D01*
X27682027Y-34103683D01*
X27682028Y-34103682D01*
X27836680Y-34072920D01*
X27982362Y-34012577D01*
X28113472Y-33924972D01*
X28224972Y-33813472D01*
X28312577Y-33682362D01*
X28372920Y-33536680D01*
X28403683Y-33382025D01*
X28403683Y-33224341D01*
X28403683Y-33224338D01*
X28403682Y-33224336D01*
X28372921Y-33069693D01*
X28372920Y-33069686D01*
X28343967Y-32999786D01*
X28312580Y-32924010D01*
X28312573Y-32923997D01*
X28224581Y-32792308D01*
X28203703Y-32725630D01*
X28203683Y-32723417D01*
X28203683Y-31856913D01*
X28223368Y-31789874D01*
X28239998Y-31769236D01*
X28437820Y-31571414D01*
X28499142Y-31537930D01*
X28568834Y-31542914D01*
X28624767Y-31584786D01*
X28649184Y-31650250D01*
X28649500Y-31659096D01*
X28649500Y-31806287D01*
X28682754Y-32016243D01*
X28734075Y-32174193D01*
X28748444Y-32218414D01*
X28844951Y-32407820D01*
X28969890Y-32579786D01*
X29120213Y-32730109D01*
X29292182Y-32855050D01*
X29300946Y-32859516D01*
X29351742Y-32907491D01*
X29368536Y-32975312D01*
X29345998Y-33041447D01*
X29300946Y-33080484D01*
X29292182Y-33084949D01*
X29120213Y-33209890D01*
X28969890Y-33360213D01*
X28844951Y-33532179D01*
X28748444Y-33721585D01*
X28748443Y-33721587D01*
X28748443Y-33721588D01*
X28724432Y-33795486D01*
X28682753Y-33923760D01*
X28656327Y-34090609D01*
X28649500Y-34133713D01*
X28649500Y-34346287D01*
X28682754Y-34556243D01*
X28746120Y-34751264D01*
X28748444Y-34758414D01*
X28844951Y-34947820D01*
X28969890Y-35119786D01*
X29120213Y-35270109D01*
X29292182Y-35395050D01*
X29300946Y-35399516D01*
X29351742Y-35447491D01*
X29368536Y-35515312D01*
X29345998Y-35581447D01*
X29300946Y-35620484D01*
X29292182Y-35624949D01*
X29120213Y-35749890D01*
X28969890Y-35900213D01*
X28844951Y-36072179D01*
X28748444Y-36261585D01*
X28748443Y-36261587D01*
X28748443Y-36261588D01*
X28728883Y-36321786D01*
X28682753Y-36463760D01*
X28649500Y-36673713D01*
X28649500Y-36886286D01*
X28679650Y-37076649D01*
X28682754Y-37096243D01*
X28735651Y-37259043D01*
X28748444Y-37298414D01*
X28844951Y-37487820D01*
X28969890Y-37659786D01*
X29120213Y-37810109D01*
X29292182Y-37935050D01*
X29300946Y-37939516D01*
X29351742Y-37987491D01*
X29368536Y-38055312D01*
X29345998Y-38121447D01*
X29300946Y-38160484D01*
X29292182Y-38164949D01*
X29120213Y-38289890D01*
X28969890Y-38440213D01*
X28844951Y-38612179D01*
X28748444Y-38801585D01*
X28748443Y-38801587D01*
X28748443Y-38801588D01*
X28724432Y-38875486D01*
X28682753Y-39003760D01*
X28649500Y-39213713D01*
X28649500Y-39426286D01*
X28681291Y-39627011D01*
X28682754Y-39636243D01*
X28734075Y-39794193D01*
X28748444Y-39838414D01*
X28844951Y-40027820D01*
X28969890Y-40199786D01*
X29120213Y-40350109D01*
X29292182Y-40475050D01*
X29300946Y-40479516D01*
X29351742Y-40527491D01*
X29368536Y-40595312D01*
X29345998Y-40661447D01*
X29300946Y-40700484D01*
X29292182Y-40704949D01*
X29120213Y-40829890D01*
X28969890Y-40980213D01*
X28844951Y-41152179D01*
X28748444Y-41341585D01*
X28748443Y-41341587D01*
X28748443Y-41341588D01*
X28724432Y-41415486D01*
X28682753Y-41543760D01*
X28664372Y-41659815D01*
X28649500Y-41753713D01*
X28649500Y-41966287D01*
X28682754Y-42176243D01*
X28734075Y-42334193D01*
X28748444Y-42378414D01*
X28844951Y-42567820D01*
X28969890Y-42739786D01*
X29120213Y-42890109D01*
X29292179Y-43015048D01*
X29292181Y-43015049D01*
X29292184Y-43015051D01*
X29481588Y-43111557D01*
X29683757Y-43177246D01*
X29893713Y-43210500D01*
X29893714Y-43210500D01*
X30106286Y-43210500D01*
X30106287Y-43210500D01*
X30316243Y-43177246D01*
X30518412Y-43111557D01*
X30707816Y-43015051D01*
X30745305Y-42987814D01*
X30879786Y-42890109D01*
X30879788Y-42890106D01*
X30879792Y-42890104D01*
X31030104Y-42739792D01*
X31030106Y-42739788D01*
X31030109Y-42739786D01*
X31155048Y-42567820D01*
X31155047Y-42567820D01*
X31155051Y-42567816D01*
X31251557Y-42378412D01*
X31257569Y-42359907D01*
X31297006Y-42302232D01*
X31361365Y-42275034D01*
X31430211Y-42286949D01*
X31481687Y-42334193D01*
X31499500Y-42398226D01*
X31499500Y-61375500D01*
X31479815Y-61442539D01*
X31427011Y-61488294D01*
X31375500Y-61499500D01*
X26625640Y-61499500D01*
X26558601Y-61479815D01*
X26512846Y-61427011D01*
X26502902Y-61357853D01*
X26515155Y-61319206D01*
X26519870Y-61309950D01*
X26519873Y-61309945D01*
X26573402Y-61145201D01*
X26600500Y-60974111D01*
X26600500Y-60100889D01*
X26573402Y-59929799D01*
X26519873Y-59765055D01*
X26441232Y-59610712D01*
X26339414Y-59470572D01*
X26216928Y-59348086D01*
X26076788Y-59246268D01*
X25922445Y-59167627D01*
X25757701Y-59114098D01*
X25757699Y-59114097D01*
X25757698Y-59114097D01*
X25626271Y-59093281D01*
X25586611Y-59087000D01*
X25413389Y-59087000D01*
X25381192Y-59092099D01*
X25242301Y-59114097D01*
X25242299Y-59114097D01*
X25227207Y-59119001D01*
X25157366Y-59120993D01*
X25097535Y-59084909D01*
X25066710Y-59022207D01*
X25074678Y-58952793D01*
X25118909Y-58898706D01*
X25132591Y-58890588D01*
X25142302Y-58885641D01*
X25298359Y-58772259D01*
X25434759Y-58635859D01*
X25548141Y-58479802D01*
X25635715Y-58307929D01*
X25695324Y-58124472D01*
X25725500Y-57933949D01*
X25725500Y-57741051D01*
X25695324Y-57550528D01*
X25635715Y-57367071D01*
X25548141Y-57195198D01*
X25434759Y-57039141D01*
X25298359Y-56902741D01*
X25142302Y-56789359D01*
X24970429Y-56701785D01*
X24786972Y-56642176D01*
X24786970Y-56642175D01*
X24786969Y-56642175D01*
X24640614Y-56618995D01*
X24596449Y-56612000D01*
X24403551Y-56612000D01*
X24367697Y-56617678D01*
X24213030Y-56642175D01*
X24029568Y-56701786D01*
X23857697Y-56789359D01*
X23768661Y-56854047D01*
X23701641Y-56902741D01*
X23701639Y-56902743D01*
X23701638Y-56902743D01*
X23565243Y-57039138D01*
X23565243Y-57039139D01*
X23565241Y-57039141D01*
X23516547Y-57106161D01*
X23451859Y-57195197D01*
X23364286Y-57367068D01*
X23304675Y-57550530D01*
X23274500Y-57741051D01*
X23274500Y-57933948D01*
X23304675Y-58124469D01*
X23304676Y-58124472D01*
X23364285Y-58307929D01*
X23451859Y-58479802D01*
X23565241Y-58635859D01*
X23701641Y-58772259D01*
X23857698Y-58885641D01*
X24029571Y-58973215D01*
X24213028Y-59032824D01*
X24403551Y-59063000D01*
X24403552Y-59063000D01*
X24596448Y-59063000D01*
X24596449Y-59063000D01*
X24786972Y-59032824D01*
X24822020Y-59021435D01*
X24891858Y-59019440D01*
X24951691Y-59055520D01*
X24982520Y-59118221D01*
X24974556Y-59187635D01*
X24930328Y-59241725D01*
X24925132Y-59245090D01*
X24923223Y-59246259D01*
X24832365Y-59312271D01*
X24783072Y-59348086D01*
X24783070Y-59348088D01*
X24783069Y-59348088D01*
X24660588Y-59470569D01*
X24660588Y-59470570D01*
X24660586Y-59470572D01*
X24616859Y-59530756D01*
X24558768Y-59610711D01*
X24480128Y-59765052D01*
X24426597Y-59929802D01*
X24399500Y-60100889D01*
X24399500Y-60974110D01*
X24426597Y-61145197D01*
X24480129Y-61309950D01*
X24484845Y-61319206D01*
X24497741Y-61387875D01*
X24471464Y-61452615D01*
X24414358Y-61492872D01*
X24374360Y-61499500D01*
X19625640Y-61499500D01*
X19558601Y-61479815D01*
X19512846Y-61427011D01*
X19502902Y-61357853D01*
X19515155Y-61319206D01*
X19519870Y-61309950D01*
X19519873Y-61309945D01*
X19573402Y-61145201D01*
X19600500Y-60974111D01*
X19600500Y-60100889D01*
X19573402Y-59929799D01*
X19519873Y-59765055D01*
X19441232Y-59610712D01*
X19339414Y-59470572D01*
X19216928Y-59348086D01*
X19146858Y-59297177D01*
X19076786Y-59246266D01*
X19074874Y-59245095D01*
X19074299Y-59244460D01*
X19072846Y-59243404D01*
X19073067Y-59243098D01*
X19027998Y-59193284D01*
X19016575Y-59124354D01*
X19044231Y-59060191D01*
X19102187Y-59021166D01*
X19172040Y-59019669D01*
X19177952Y-59021427D01*
X19213028Y-59032824D01*
X19403551Y-59063000D01*
X19403552Y-59063000D01*
X19596448Y-59063000D01*
X19596449Y-59063000D01*
X19786972Y-59032824D01*
X19970429Y-58973215D01*
X20142302Y-58885641D01*
X20298359Y-58772259D01*
X20434759Y-58635859D01*
X20548141Y-58479802D01*
X20635715Y-58307929D01*
X20695324Y-58124472D01*
X20725500Y-57933949D01*
X20725500Y-57741051D01*
X20695324Y-57550528D01*
X20635715Y-57367071D01*
X20548141Y-57195198D01*
X20434759Y-57039141D01*
X20298359Y-56902741D01*
X20142302Y-56789359D01*
X19970429Y-56701785D01*
X19786972Y-56642176D01*
X19786970Y-56642175D01*
X19786969Y-56642175D01*
X19640614Y-56618995D01*
X19596449Y-56612000D01*
X19403551Y-56612000D01*
X19367697Y-56617678D01*
X19213030Y-56642175D01*
X19029568Y-56701786D01*
X18857697Y-56789359D01*
X18768661Y-56854047D01*
X18701641Y-56902741D01*
X18701639Y-56902743D01*
X18701638Y-56902743D01*
X18565243Y-57039138D01*
X18565243Y-57039139D01*
X18565241Y-57039141D01*
X18516547Y-57106161D01*
X18451859Y-57195197D01*
X18364286Y-57367068D01*
X18304675Y-57550530D01*
X18274500Y-57741051D01*
X18274500Y-57933948D01*
X18304675Y-58124469D01*
X18304676Y-58124472D01*
X18364285Y-58307929D01*
X18451859Y-58479802D01*
X18565241Y-58635859D01*
X18701641Y-58772259D01*
X18857698Y-58885641D01*
X18867394Y-58890581D01*
X18918192Y-58938553D01*
X18934990Y-59006373D01*
X18912456Y-59072509D01*
X18857742Y-59115963D01*
X18788222Y-59122938D01*
X18772790Y-59119000D01*
X18757703Y-59114098D01*
X18757698Y-59114097D01*
X18626271Y-59093281D01*
X18586611Y-59087000D01*
X18413389Y-59087000D01*
X18373728Y-59093281D01*
X18242302Y-59114097D01*
X18077552Y-59167628D01*
X17923211Y-59246268D01*
X17843256Y-59304359D01*
X17783072Y-59348086D01*
X17783070Y-59348088D01*
X17783069Y-59348088D01*
X17660588Y-59470569D01*
X17660588Y-59470570D01*
X17660586Y-59470572D01*
X17616859Y-59530756D01*
X17558768Y-59610711D01*
X17480128Y-59765052D01*
X17426597Y-59929802D01*
X17399500Y-60100889D01*
X17399500Y-60974110D01*
X17426597Y-61145197D01*
X17480129Y-61309950D01*
X17484845Y-61319206D01*
X17497741Y-61387875D01*
X17471464Y-61452615D01*
X17414358Y-61492872D01*
X17374360Y-61499500D01*
X12624500Y-61499500D01*
X12557461Y-61479815D01*
X12511706Y-61427011D01*
X12500500Y-61375500D01*
X12500500Y-42818226D01*
X12520185Y-42751187D01*
X12572989Y-42705432D01*
X12642147Y-42695488D01*
X12705703Y-42724513D01*
X12742431Y-42779908D01*
X12748444Y-42798414D01*
X12844951Y-42987820D01*
X12969890Y-43159786D01*
X13120213Y-43310109D01*
X13292179Y-43435048D01*
X13292181Y-43435049D01*
X13292184Y-43435051D01*
X13481588Y-43531557D01*
X13683757Y-43597246D01*
X13893713Y-43630500D01*
X13893714Y-43630500D01*
X14106286Y-43630500D01*
X14106287Y-43630500D01*
X14316243Y-43597246D01*
X14518412Y-43531557D01*
X14707816Y-43435051D01*
X14729789Y-43419086D01*
X14879786Y-43310109D01*
X14879788Y-43310106D01*
X14879792Y-43310104D01*
X15030104Y-43159792D01*
X15030106Y-43159788D01*
X15030109Y-43159786D01*
X15088661Y-43079193D01*
X15155051Y-42987816D01*
X15155349Y-42987230D01*
X15175235Y-42948205D01*
X15223209Y-42897409D01*
X15285719Y-42880500D01*
X15833331Y-42880500D01*
X15833347Y-42880501D01*
X15840943Y-42880501D01*
X15999054Y-42880501D01*
X15999057Y-42880501D01*
X16151785Y-42839577D01*
X16201904Y-42810639D01*
X16288716Y-42760520D01*
X16400520Y-42648716D01*
X16400520Y-42648714D01*
X16410728Y-42638507D01*
X16410729Y-42638504D01*
X17712416Y-41336819D01*
X17773739Y-41303334D01*
X17800097Y-41300500D01*
X17814780Y-41300500D01*
X17814781Y-41300499D01*
X17969433Y-41269737D01*
X18115115Y-41209394D01*
X18246225Y-41121789D01*
X18357725Y-41010289D01*
X18445330Y-40879179D01*
X18505673Y-40733497D01*
X18536436Y-40578842D01*
X18536436Y-40421158D01*
X18536436Y-40421155D01*
X18536435Y-40421153D01*
X18505673Y-40266503D01*
X18505671Y-40266498D01*
X18445333Y-40120827D01*
X18445326Y-40120814D01*
X18357725Y-39989711D01*
X18357722Y-39989707D01*
X18246228Y-39878213D01*
X18246224Y-39878210D01*
X18115121Y-39790609D01*
X18115108Y-39790602D01*
X17969437Y-39730264D01*
X17969425Y-39730261D01*
X17814781Y-39699500D01*
X17814778Y-39699500D01*
X17685033Y-39699500D01*
X17663787Y-39693261D01*
X17641700Y-39691682D01*
X17630916Y-39683609D01*
X17617994Y-39679815D01*
X17603495Y-39663083D01*
X17585766Y-39649811D01*
X17581058Y-39637188D01*
X17572239Y-39627011D01*
X17569087Y-39605094D01*
X17561349Y-39584346D01*
X17564211Y-39571185D01*
X17562295Y-39557853D01*
X17571494Y-39537709D01*
X17576201Y-39516073D01*
X17589470Y-39498345D01*
X17591320Y-39494297D01*
X17597339Y-39487830D01*
X17750599Y-39334571D01*
X17811919Y-39301089D01*
X17814086Y-39300638D01*
X17872021Y-39289113D01*
X17969433Y-39269737D01*
X18115115Y-39209394D01*
X18246225Y-39121789D01*
X18357725Y-39010289D01*
X18445330Y-38879179D01*
X18505673Y-38733497D01*
X18536436Y-38578842D01*
X18536436Y-38421158D01*
X18536436Y-38421155D01*
X18536435Y-38421153D01*
X18531940Y-38398556D01*
X18505673Y-38266503D01*
X18463609Y-38164951D01*
X18445333Y-38120827D01*
X18445326Y-38120814D01*
X18357725Y-37989711D01*
X18357722Y-37989707D01*
X18246228Y-37878213D01*
X18246224Y-37878210D01*
X18115121Y-37790609D01*
X18115108Y-37790602D01*
X17969437Y-37730264D01*
X17969425Y-37730261D01*
X17814781Y-37699500D01*
X17814778Y-37699500D01*
X17657094Y-37699500D01*
X17657091Y-37699500D01*
X17502446Y-37730261D01*
X17502434Y-37730264D01*
X17356763Y-37790602D01*
X17356750Y-37790609D01*
X17225647Y-37878210D01*
X17225643Y-37878213D01*
X17114149Y-37989707D01*
X17114146Y-37989711D01*
X17026545Y-38120814D01*
X17026538Y-38120827D01*
X16966200Y-38266498D01*
X16966197Y-38266508D01*
X16935297Y-38421850D01*
X16902912Y-38483761D01*
X16901361Y-38485339D01*
X16023520Y-39363181D01*
X15962197Y-39396666D01*
X15935839Y-39399500D01*
X15399456Y-39399500D01*
X15332417Y-39379815D01*
X15286662Y-39327011D01*
X15281525Y-39313818D01*
X15251558Y-39221590D01*
X15155048Y-39032179D01*
X15030109Y-38860213D01*
X14879786Y-38709890D01*
X14707820Y-38584951D01*
X14707115Y-38584591D01*
X14699054Y-38580485D01*
X14648259Y-38532512D01*
X14631463Y-38464692D01*
X14653999Y-38398556D01*
X14699054Y-38359515D01*
X14707816Y-38355051D01*
X14797503Y-38289890D01*
X14879786Y-38230109D01*
X14879788Y-38230106D01*
X14879792Y-38230104D01*
X15030104Y-38079792D01*
X15030106Y-38079788D01*
X15030109Y-38079786D01*
X15155048Y-37907820D01*
X15155047Y-37907820D01*
X15155051Y-37907816D01*
X15251557Y-37718412D01*
X15317246Y-37516243D01*
X15350500Y-37306287D01*
X15350500Y-37093713D01*
X15317246Y-36883757D01*
X15251557Y-36681588D01*
X15155051Y-36492184D01*
X15155049Y-36492181D01*
X15155048Y-36492179D01*
X15030109Y-36320213D01*
X14879786Y-36169890D01*
X14707820Y-36044951D01*
X14707115Y-36044591D01*
X14699054Y-36040485D01*
X14648259Y-35992512D01*
X14631463Y-35924692D01*
X14653999Y-35858556D01*
X14699054Y-35819515D01*
X14707816Y-35815051D01*
X14797503Y-35749890D01*
X14879786Y-35690109D01*
X14879788Y-35690106D01*
X14879792Y-35690104D01*
X14948743Y-35621153D01*
X22299500Y-35621153D01*
X22299500Y-35778846D01*
X22330261Y-35933489D01*
X22330264Y-35933501D01*
X22390602Y-36079172D01*
X22390609Y-36079185D01*
X22478210Y-36210288D01*
X22478213Y-36210292D01*
X22589707Y-36321786D01*
X22589711Y-36321789D01*
X22720814Y-36409390D01*
X22720827Y-36409397D01*
X22852066Y-36463757D01*
X22866503Y-36469737D01*
X22979326Y-36492179D01*
X23021153Y-36500499D01*
X23021156Y-36500500D01*
X23021158Y-36500500D01*
X23178844Y-36500500D01*
X23178845Y-36500499D01*
X23333497Y-36469737D01*
X23479179Y-36409394D01*
X23522780Y-36380260D01*
X23589455Y-36359382D01*
X23656836Y-36377865D01*
X23679352Y-36395681D01*
X26513181Y-39229510D01*
X26546666Y-39290833D01*
X26549500Y-39317191D01*
X26549500Y-40920234D01*
X26529815Y-40987273D01*
X26528602Y-40989125D01*
X26440609Y-41120814D01*
X26440602Y-41120827D01*
X26380264Y-41266498D01*
X26380261Y-41266510D01*
X26349500Y-41421153D01*
X26349500Y-41578846D01*
X26380261Y-41733489D01*
X26380264Y-41733501D01*
X26440602Y-41879172D01*
X26440609Y-41879185D01*
X26528210Y-42010288D01*
X26528213Y-42010292D01*
X26639707Y-42121786D01*
X26639711Y-42121789D01*
X26770814Y-42209390D01*
X26770827Y-42209397D01*
X26916498Y-42269735D01*
X26916503Y-42269737D01*
X27071153Y-42300499D01*
X27071156Y-42300500D01*
X27071158Y-42300500D01*
X27228844Y-42300500D01*
X27228845Y-42300499D01*
X27383497Y-42269737D01*
X27529179Y-42209394D01*
X27660289Y-42121789D01*
X27771789Y-42010289D01*
X27859394Y-41879179D01*
X27919737Y-41733497D01*
X27950500Y-41578842D01*
X27950500Y-41421158D01*
X27950500Y-41421155D01*
X27950499Y-41421153D01*
X27919738Y-41266510D01*
X27919737Y-41266503D01*
X27859794Y-41121786D01*
X27859397Y-41120827D01*
X27859390Y-41120814D01*
X27771398Y-40989125D01*
X27750520Y-40922447D01*
X27750500Y-40920234D01*
X27750500Y-38938039D01*
X27750500Y-38938037D01*
X27709577Y-38785310D01*
X27709577Y-38785309D01*
X27650057Y-38682218D01*
X27630520Y-38648378D01*
X27518716Y-38536574D01*
X27518715Y-38536573D01*
X27514385Y-38532243D01*
X27514374Y-38532233D01*
X26241184Y-37259043D01*
X26207699Y-37197720D01*
X26212683Y-37128028D01*
X26254555Y-37072095D01*
X26281405Y-37056804D01*
X26379179Y-37016306D01*
X26510289Y-36928701D01*
X26621789Y-36817201D01*
X26709394Y-36686091D01*
X26709395Y-36686086D01*
X26709399Y-36686081D01*
X26769735Y-36540413D01*
X26769737Y-36540409D01*
X26800500Y-36385754D01*
X26800500Y-36228070D01*
X26800500Y-36228067D01*
X26800499Y-36228065D01*
X26788927Y-36169890D01*
X26769737Y-36073415D01*
X26757946Y-36044949D01*
X26709397Y-35927739D01*
X26709390Y-35927726D01*
X26621789Y-35796623D01*
X26621786Y-35796619D01*
X26510292Y-35685125D01*
X26510288Y-35685122D01*
X26379185Y-35597521D01*
X26379172Y-35597514D01*
X26233501Y-35537176D01*
X26233491Y-35537173D01*
X26078149Y-35506273D01*
X26061392Y-35497507D01*
X26042914Y-35493488D01*
X26017877Y-35474745D01*
X26016238Y-35473888D01*
X26014660Y-35472337D01*
X25947582Y-35405259D01*
X25914097Y-35343936D01*
X25911263Y-35317578D01*
X25911263Y-35279821D01*
X25911264Y-35279808D01*
X25911264Y-35111705D01*
X25907994Y-35099500D01*
X25870340Y-34958977D01*
X25853761Y-34930261D01*
X25791287Y-34822051D01*
X25791281Y-34822043D01*
X25754575Y-34785337D01*
X25721090Y-34724014D01*
X25720639Y-34721847D01*
X25720501Y-34721153D01*
X25689739Y-34566503D01*
X25684441Y-34553713D01*
X25629399Y-34420827D01*
X25629392Y-34420814D01*
X25541791Y-34289711D01*
X25541788Y-34289707D01*
X25430294Y-34178213D01*
X25430290Y-34178210D01*
X25299187Y-34090609D01*
X25299174Y-34090602D01*
X25153503Y-34030264D01*
X25153491Y-34030261D01*
X24998847Y-33999500D01*
X24998844Y-33999500D01*
X24841160Y-33999500D01*
X24841157Y-33999500D01*
X24686512Y-34030261D01*
X24686500Y-34030264D01*
X24540829Y-34090602D01*
X24540816Y-34090609D01*
X24409713Y-34178210D01*
X24409709Y-34178213D01*
X24298215Y-34289707D01*
X24298212Y-34289711D01*
X24210611Y-34420814D01*
X24210604Y-34420827D01*
X24150266Y-34566498D01*
X24150263Y-34566510D01*
X24119502Y-34721153D01*
X24119502Y-34878846D01*
X24138645Y-34975086D01*
X24132418Y-35044678D01*
X24089554Y-35099855D01*
X24023665Y-35123099D01*
X23984935Y-35119052D01*
X23930675Y-35104513D01*
X23911963Y-35099499D01*
X23753849Y-35099499D01*
X23746253Y-35099499D01*
X23746237Y-35099500D01*
X23679766Y-35099500D01*
X23612727Y-35079815D01*
X23610875Y-35078602D01*
X23479185Y-34990609D01*
X23479172Y-34990602D01*
X23333501Y-34930264D01*
X23333489Y-34930261D01*
X23178845Y-34899500D01*
X23178842Y-34899500D01*
X23021158Y-34899500D01*
X23021155Y-34899500D01*
X22866510Y-34930261D01*
X22866498Y-34930264D01*
X22720827Y-34990602D01*
X22720814Y-34990609D01*
X22589711Y-35078210D01*
X22589707Y-35078213D01*
X22478213Y-35189707D01*
X22478210Y-35189711D01*
X22390609Y-35320814D01*
X22390602Y-35320827D01*
X22330264Y-35466498D01*
X22330261Y-35466510D01*
X22299500Y-35621153D01*
X14948743Y-35621153D01*
X15030104Y-35539792D01*
X15038350Y-35528443D01*
X15060826Y-35497507D01*
X15155051Y-35367816D01*
X15251557Y-35178412D01*
X15317246Y-34976243D01*
X15350500Y-34766287D01*
X15350500Y-34553713D01*
X15317246Y-34343757D01*
X15251557Y-34141588D01*
X15155051Y-33952184D01*
X15155049Y-33952181D01*
X15155048Y-33952179D01*
X15030109Y-33780213D01*
X14879786Y-33629890D01*
X14707820Y-33504951D01*
X14707115Y-33504591D01*
X14699054Y-33500485D01*
X14648259Y-33452512D01*
X14631463Y-33384692D01*
X14653999Y-33318556D01*
X14699054Y-33279515D01*
X14707816Y-33275051D01*
X14797503Y-33209890D01*
X14879786Y-33150109D01*
X14879788Y-33150106D01*
X14879792Y-33150104D01*
X15030104Y-32999792D01*
X15030106Y-32999788D01*
X15030109Y-32999786D01*
X15155048Y-32827820D01*
X15155047Y-32827820D01*
X15155051Y-32827816D01*
X15251557Y-32638412D01*
X15317246Y-32436243D01*
X15350500Y-32226287D01*
X15350500Y-32013713D01*
X15317246Y-31803757D01*
X15251557Y-31601588D01*
X15155051Y-31412184D01*
X15155049Y-31412181D01*
X15155048Y-31412179D01*
X15030109Y-31240213D01*
X14879786Y-31089890D01*
X14707820Y-30964951D01*
X14707115Y-30964591D01*
X14699054Y-30960485D01*
X14648259Y-30912512D01*
X14631463Y-30844692D01*
X14653999Y-30778556D01*
X14699054Y-30739515D01*
X14707816Y-30735051D01*
X14797503Y-30669890D01*
X14879786Y-30610109D01*
X14879788Y-30610106D01*
X14879792Y-30610104D01*
X15030104Y-30459792D01*
X15030106Y-30459788D01*
X15030109Y-30459786D01*
X15155048Y-30287820D01*
X15155047Y-30287820D01*
X15155051Y-30287816D01*
X15251557Y-30098412D01*
X15317246Y-29896243D01*
X15350500Y-29686287D01*
X15350500Y-29473713D01*
X15317246Y-29263757D01*
X15251557Y-29061588D01*
X15155051Y-28872184D01*
X15155049Y-28872181D01*
X15155048Y-28872179D01*
X15030109Y-28700213D01*
X14879786Y-28549890D01*
X14707820Y-28424951D01*
X14707115Y-28424591D01*
X14699054Y-28420485D01*
X14648259Y-28372512D01*
X14631463Y-28304692D01*
X14653999Y-28238556D01*
X14699054Y-28199515D01*
X14707816Y-28195051D01*
X14797503Y-28129890D01*
X14879786Y-28070109D01*
X14879788Y-28070106D01*
X14879792Y-28070104D01*
X15030104Y-27919792D01*
X15030106Y-27919788D01*
X15030109Y-27919786D01*
X15155048Y-27747820D01*
X15155047Y-27747820D01*
X15155051Y-27747816D01*
X15251557Y-27558412D01*
X15317246Y-27356243D01*
X15350500Y-27146287D01*
X15350500Y-26933713D01*
X15317246Y-26723757D01*
X15251557Y-26521588D01*
X15155051Y-26332184D01*
X15155049Y-26332181D01*
X15155048Y-26332179D01*
X15030109Y-26160213D01*
X14879786Y-26009890D01*
X14707820Y-25884951D01*
X14707115Y-25884591D01*
X14699054Y-25880485D01*
X14648259Y-25832512D01*
X14631463Y-25764692D01*
X14653999Y-25698556D01*
X14699054Y-25659515D01*
X14707816Y-25655051D01*
X14797503Y-25589890D01*
X14879786Y-25530109D01*
X14879788Y-25530106D01*
X14879792Y-25530104D01*
X15030104Y-25379792D01*
X15030106Y-25379788D01*
X15030109Y-25379786D01*
X15155048Y-25207820D01*
X15155047Y-25207820D01*
X15155051Y-25207816D01*
X15251557Y-25018412D01*
X15317246Y-24816243D01*
X15350500Y-24606287D01*
X15350500Y-24393713D01*
X15317246Y-24183757D01*
X15251557Y-23981588D01*
X15155051Y-23792184D01*
X15155049Y-23792181D01*
X15155048Y-23792179D01*
X15030109Y-23620213D01*
X14879786Y-23469890D01*
X14707820Y-23344951D01*
X14707115Y-23344591D01*
X14699054Y-23340485D01*
X14648259Y-23292512D01*
X14631463Y-23224692D01*
X14653999Y-23158556D01*
X14699054Y-23119515D01*
X14707816Y-23115051D01*
X14797503Y-23049890D01*
X14879786Y-22990109D01*
X14879788Y-22990106D01*
X14879792Y-22990104D01*
X15030104Y-22839792D01*
X15030106Y-22839788D01*
X15030109Y-22839786D01*
X15155048Y-22667820D01*
X15155047Y-22667820D01*
X15155051Y-22667816D01*
X15251557Y-22478412D01*
X15317246Y-22276243D01*
X15350500Y-22066287D01*
X15350500Y-21853713D01*
X15317246Y-21643757D01*
X15251557Y-21441588D01*
X15155051Y-21252184D01*
X15155049Y-21252181D01*
X15155048Y-21252179D01*
X15030109Y-21080213D01*
X14916569Y-20966673D01*
X14883084Y-20905350D01*
X14888068Y-20835658D01*
X14929940Y-20779725D01*
X14960915Y-20762810D01*
X15092331Y-20713796D01*
X15207546Y-20627546D01*
X15293796Y-20512331D01*
X15344091Y-20377483D01*
X15350500Y-20317873D01*
X15350499Y-18522128D01*
X15344091Y-18462517D01*
X15302521Y-18351063D01*
X15293797Y-18327671D01*
X15293793Y-18327664D01*
X15207547Y-18212455D01*
X15207544Y-18212452D01*
X15092335Y-18126206D01*
X15092328Y-18126202D01*
X14957482Y-18075908D01*
X14957483Y-18075908D01*
X14897883Y-18069501D01*
X14897881Y-18069500D01*
X14897873Y-18069500D01*
X14897864Y-18069500D01*
X13102129Y-18069500D01*
X13102123Y-18069501D01*
X13042516Y-18075908D01*
X12907671Y-18126202D01*
X12907664Y-18126206D01*
X12792455Y-18212452D01*
X12792452Y-18212455D01*
X12723766Y-18304208D01*
X12667832Y-18346079D01*
X12598141Y-18351063D01*
X12536818Y-18317577D01*
X12503334Y-18256254D01*
X12500500Y-18229897D01*
X12500500Y-12624500D01*
X12520185Y-12557461D01*
X12572989Y-12511706D01*
X12624500Y-12500500D01*
X31375500Y-12500500D01*
X31442539Y-12520185D01*
G37*
%TD.AperFunction*%
%TD*%
M02*
